<?xml version="1.0" encoding="utf-8"?>
<!-- Generator: Adobe Illustrator 25.0.1, SVG Export Plug-In . SVG Version: 6.00 Build 0)  -->
<svg version="1.1" id="Layer_1" xmlns="http://www.w3.org/2000/svg" xmlns:xlink="http://www.w3.org/1999/xlink" x="0px" y="0px"
	 viewBox="0 0 485 298" style="enable-background:new 0 0 485 298;" xml:space="preserve">
<style type="text/css">
	.st0{clip-path:url(#SVGID_2_);}
	.st1{fill:#FFFFFF;}
	.st2{fill:#DBDBDB;}
	.st3{fill:none;stroke:#000000;stroke-width:2;}
	.st4{fill:none;stroke:#000000;stroke-width:4;stroke-linecap:round;}
	.st5{fill:none;stroke:#FFFFFF;stroke-width:4;stroke-linecap:round;}
	.st6{fill:none;stroke:#FFFFFF;stroke-width:2;stroke-linecap:round;stroke-miterlimit:4.1394;stroke-dasharray:1,5;}
	.st7{clip-path:url(#SVGID_4_);}
	.st8{fill:#545454;}
	.st9{clip-path:url(#SVGID_6_);}
	.st10{fill:none;stroke:#545454;stroke-width:2;}
	.st11{fill:none;stroke:#FFFFFF;stroke-linecap:round;}
	.st12{fill:#A8A8A8;}
	
		.st13{fill:none;stroke:#C1C1C1;stroke-width:2;stroke-linecap:round;stroke-linejoin:round;stroke-miterlimit:4.1394;stroke-dasharray:1,5;}
	.st14{clip-path:url(#SVGID_8_);}
	.st15{clip-path:url(#SVGID_10_);}
	
		.st16{fill:none;stroke:#FFFFFF;stroke-width:2;stroke-linecap:round;stroke-linejoin:round;stroke-miterlimit:4.1394;stroke-dasharray:1,5;}
	.st17{clip-path:url(#SVGID_12_);}
	.st18{clip-path:url(#SVGID_14_);}
	.st19{clip-path:url(#SVGID_16_);}
	.st20{clip-path:url(#SVGID_18_);}
	.st21{clip-path:url(#SVGID_20_);}
	.st22{clip-path:url(#SVGID_22_);}
	.st23{clip-path:url(#SVGID_24_);}
	.st24{fill:none;stroke:#545454;stroke-width:2;stroke-linecap:round;stroke-linejoin:round;}
	.st25{fill:none;stroke:#545454;stroke-linecap:round;}
	.st26{fill:none;stroke:#545454;stroke-width:0.5;stroke-linecap:round;}
	.st27{clip-path:url(#SVGID_26_);}
	.st28{clip-path:url(#SVGID_28_);}
	.st29{fill:none;stroke:#000000;stroke-width:2;stroke-linecap:square;stroke-linejoin:round;}
</style>
<g>
	<defs>
		<path id="SVGID_1_" d="M12,0h174c6.6,0,12,5.4,12,12v110c0,6.6-5.4,12-12,12H12c-6.6,0-12-5.4-12-12V12C0,5.4,5.4,0,12,0z"/>
	</defs>
	<clipPath id="SVGID_2_">
		<use xlink:href="#SVGID_1_"  style="overflow:visible;"/>
	</clipPath>
	<g class="st0">
		<path class="st1" d="M12,0h174c6.6,0,12,5.4,12,12v110c0,6.6-5.4,12-12,12H12c-6.6,0-12-5.4-12-12V12C0,5.4,5.4,0,12,0z"/>
		<rect class="st2" width="198" height="38"/>
		<path d="M15.2,19.1h1.2l-0.2,1.5H15L15.2,19.1z M13.7,21.6L13.4,24h1.2l0.3-2.4H16L15.7,24h1.2l0.3-2.4h1v-1.1h-0.9l0.2-1.5h1V18
			h-0.9l0.3-2.4h-1.2L16.5,18h-1.2l0.3-2.4h-1.2L14.2,18h-1.1v1.1h1l-0.2,1.5h-1.1v1.1H13.7z M19.5,19.7c0-0.4,0.1-0.7,0.3-1
			s0.4-0.5,0.7-0.6c0.3-0.2,0.6-0.3,0.9-0.3c0.3-0.1,0.7-0.1,1-0.1c0.3,0,0.6,0,0.9,0.1c0.3,0,0.6,0.1,0.9,0.3s0.5,0.3,0.6,0.5
			c0.2,0.2,0.3,0.5,0.3,0.9v3.2c0,0.3,0,0.5,0,0.8c0,0.3,0.1,0.4,0.2,0.6h-1.7c0-0.1-0.1-0.2-0.1-0.3c0-0.1,0-0.2,0-0.3
			c-0.3,0.3-0.6,0.5-1,0.6c-0.4,0.1-0.7,0.2-1.1,0.2c-0.3,0-0.6,0-0.8-0.1s-0.5-0.2-0.7-0.3c-0.2-0.2-0.3-0.3-0.5-0.6
			c-0.1-0.2-0.2-0.5-0.2-0.8c0-0.4,0.1-0.6,0.2-0.9c0.1-0.2,0.3-0.4,0.5-0.6c0.2-0.1,0.4-0.2,0.7-0.3c0.3-0.1,0.5-0.1,0.8-0.2
			c0.3,0,0.5-0.1,0.8-0.1c0.2,0,0.5-0.1,0.7-0.1c0.2,0,0.3-0.1,0.5-0.2c0.1-0.1,0.2-0.2,0.2-0.4c0-0.2,0-0.3-0.1-0.4
			c-0.1-0.1-0.1-0.2-0.2-0.3c-0.1-0.1-0.2-0.1-0.3-0.1c-0.1,0-0.3,0-0.4,0c-0.3,0-0.6,0.1-0.8,0.2c-0.2,0.1-0.3,0.4-0.3,0.7H19.5z
			 M23.5,21c-0.1,0.1-0.2,0.1-0.3,0.2c-0.1,0-0.2,0.1-0.3,0.1c-0.1,0-0.2,0-0.4,0.1s-0.3,0-0.4,0.1c-0.1,0-0.3,0.1-0.4,0.1
			c-0.1,0-0.2,0.1-0.3,0.2c-0.1,0.1-0.2,0.1-0.2,0.3s-0.1,0.2-0.1,0.4c0,0.2,0,0.3,0.1,0.4s0.1,0.2,0.2,0.3c0.1,0.1,0.2,0.1,0.3,0.1
			c0.1,0,0.3,0,0.4,0c0.3,0,0.6-0.1,0.8-0.2c0.2-0.1,0.3-0.2,0.4-0.4c0.1-0.2,0.1-0.3,0.2-0.5c0-0.2,0-0.3,0-0.4V21z M30.7,20h1.7
			c0-0.4-0.1-0.7-0.3-1c-0.2-0.3-0.4-0.5-0.7-0.7c-0.3-0.2-0.6-0.3-0.9-0.4c-0.3-0.1-0.7-0.1-1.1-0.1c-0.5,0-1,0.1-1.3,0.3
			c-0.4,0.2-0.7,0.4-1,0.7c-0.3,0.3-0.5,0.7-0.6,1.1c-0.1,0.4-0.2,0.9-0.2,1.3c0,0.5,0.1,0.9,0.2,1.3c0.2,0.4,0.4,0.7,0.6,1
			c0.3,0.3,0.6,0.5,1,0.7c0.4,0.2,0.8,0.2,1.3,0.2c0.8,0,1.5-0.2,2-0.6c0.5-0.4,0.8-1.1,1-1.9h-1.6c-0.1,0.4-0.2,0.7-0.4,0.9
			c-0.2,0.2-0.5,0.3-0.9,0.3c-0.3,0-0.5-0.1-0.7-0.2c-0.2-0.1-0.3-0.3-0.4-0.5c-0.1-0.2-0.2-0.4-0.2-0.6c0-0.2-0.1-0.5-0.1-0.7
			c0-0.2,0-0.5,0.1-0.7c0-0.2,0.1-0.5,0.2-0.6c0.1-0.2,0.3-0.4,0.5-0.5c0.2-0.1,0.4-0.2,0.7-0.2C30.2,18.9,30.6,19.3,30.7,20z
			 M33.4,17.8V24h1.7v-3.6c0-0.3,0-0.5,0.1-0.7c0.1-0.2,0.2-0.3,0.3-0.4c0.1-0.1,0.3-0.2,0.4-0.2c0.1,0,0.2-0.1,0.3-0.1
			c0.3,0,0.5,0,0.6,0.1c0.1,0.1,0.2,0.2,0.3,0.4c0.1,0.2,0.1,0.3,0.1,0.5c0,0.2,0,0.4,0,0.5V24H39v-3.5c0-0.2,0-0.4,0-0.6
			c0-0.2,0.1-0.4,0.2-0.5c0.1-0.2,0.2-0.3,0.3-0.4c0.2-0.1,0.3-0.1,0.6-0.1c0.2,0,0.4,0,0.6,0.1c0.1,0.1,0.3,0.2,0.3,0.3
			c0.1,0.1,0.1,0.3,0.1,0.5c0,0.2,0,0.4,0,0.6V24h1.7v-4.2c0-0.4-0.1-0.7-0.2-1c-0.1-0.3-0.3-0.5-0.5-0.7c-0.2-0.2-0.4-0.3-0.7-0.4
			c-0.3-0.1-0.6-0.1-0.9-0.1c-0.4,0-0.8,0.1-1.1,0.3c-0.3,0.2-0.6,0.4-0.7,0.7c-0.2-0.4-0.4-0.7-0.7-0.8c-0.3-0.2-0.7-0.2-1.1-0.2
			c-0.4,0-0.8,0.1-1.1,0.3c-0.3,0.2-0.6,0.4-0.8,0.7h0v-0.8H33.4z M48.4,20.2h-2.8c0-0.1,0-0.3,0.1-0.4c0-0.2,0.1-0.3,0.2-0.4
			c0.1-0.1,0.3-0.2,0.4-0.3c0.2-0.1,0.4-0.1,0.7-0.1c0.4,0,0.7,0.1,0.9,0.3C48.2,19.5,48.4,19.8,48.4,20.2z M45.7,21.3h4.5
			c0-0.5,0-0.9-0.1-1.4c-0.1-0.4-0.3-0.8-0.6-1.2c-0.2-0.3-0.6-0.6-1-0.8c-0.4-0.2-0.9-0.3-1.4-0.3c-0.5,0-0.9,0.1-1.3,0.3
			c-0.4,0.2-0.7,0.4-1,0.7c-0.3,0.3-0.5,0.6-0.6,1S44,20.4,44,20.9c0,0.5,0.1,0.9,0.2,1.3c0.2,0.4,0.4,0.7,0.6,1
			c0.3,0.3,0.6,0.5,1,0.7c0.4,0.2,0.8,0.2,1.3,0.2c0.7,0,1.3-0.2,1.8-0.5c0.5-0.3,0.9-0.9,1.1-1.6h-1.5c-0.1,0.2-0.2,0.4-0.5,0.6
			c-0.2,0.2-0.5,0.3-0.9,0.3c-0.5,0-0.8-0.1-1.1-0.4C45.8,22.3,45.7,21.9,45.7,21.3z M51.1,20v1.5h3.6V20H51.1z M63.1,24l2-6.2h-1.8
			L62.2,22h0l-1.1-4.2h-1.7l-1,4.2h0l-1.1-4.2h-1.8l2,6.2h1.8l1.1-4.2h0l1.1,4.2H63.1z M65.7,19.7c0-0.4,0.1-0.7,0.3-1
			c0.2-0.3,0.4-0.5,0.7-0.6c0.3-0.2,0.6-0.3,0.9-0.3c0.3-0.1,0.7-0.1,1-0.1c0.3,0,0.6,0,0.9,0.1c0.3,0,0.6,0.1,0.9,0.3
			s0.5,0.3,0.6,0.5c0.2,0.2,0.3,0.5,0.3,0.9v3.2c0,0.3,0,0.5,0,0.8c0,0.3,0.1,0.4,0.2,0.6h-1.7c0-0.1-0.1-0.2-0.1-0.3
			c0-0.1,0-0.2,0-0.3c-0.3,0.3-0.6,0.5-1,0.6c-0.4,0.1-0.7,0.2-1.1,0.2c-0.3,0-0.6,0-0.8-0.1c-0.3-0.1-0.5-0.2-0.7-0.3
			s-0.3-0.3-0.5-0.6c-0.1-0.2-0.2-0.5-0.2-0.8c0-0.4,0.1-0.6,0.2-0.9c0.1-0.2,0.3-0.4,0.5-0.6c0.2-0.1,0.4-0.2,0.7-0.3
			c0.3-0.1,0.5-0.1,0.8-0.2c0.3,0,0.5-0.1,0.8-0.1c0.2,0,0.5-0.1,0.7-0.1c0.2,0,0.3-0.1,0.5-0.2c0.1-0.1,0.2-0.2,0.2-0.4
			c0-0.2,0-0.3-0.1-0.4c-0.1-0.1-0.1-0.2-0.2-0.3c-0.1-0.1-0.2-0.1-0.3-0.1c-0.1,0-0.3,0-0.4,0c-0.3,0-0.6,0.1-0.8,0.2
			c-0.2,0.1-0.3,0.4-0.3,0.7H65.7z M69.7,21c-0.1,0.1-0.2,0.1-0.3,0.2c-0.1,0-0.2,0.1-0.3,0.1c-0.1,0-0.2,0-0.4,0.1
			c-0.1,0-0.3,0-0.4,0.1c-0.1,0-0.3,0.1-0.4,0.1c-0.1,0-0.2,0.1-0.3,0.2c-0.1,0.1-0.2,0.1-0.2,0.3s-0.1,0.2-0.1,0.4
			c0,0.2,0,0.3,0.1,0.4s0.1,0.2,0.2,0.3c0.1,0.1,0.2,0.1,0.3,0.1c0.1,0,0.3,0,0.4,0c0.3,0,0.6-0.1,0.8-0.2c0.2-0.1,0.3-0.2,0.4-0.4
			c0.1-0.2,0.1-0.3,0.2-0.5c0-0.2,0-0.3,0-0.4V21z M74.9,17.8v-1.9h-1.7v1.9h-1v1.1h1v3.7c0,0.3,0.1,0.6,0.2,0.8
			c0.1,0.2,0.2,0.3,0.4,0.4c0.2,0.1,0.4,0.2,0.6,0.2c0.2,0,0.5,0.1,0.8,0.1c0.2,0,0.3,0,0.5,0c0.2,0,0.3,0,0.5,0v-1.3
			c-0.1,0-0.2,0-0.3,0c-0.1,0-0.2,0-0.3,0c-0.3,0-0.5,0-0.6-0.1c-0.1-0.1-0.1-0.3-0.1-0.6v-3.1h1.2v-1.1H74.9z M81.1,20.2h-2.8
			c0-0.1,0-0.3,0.1-0.4c0-0.2,0.1-0.3,0.2-0.4c0.1-0.1,0.3-0.2,0.4-0.3c0.2-0.1,0.4-0.1,0.7-0.1c0.4,0,0.7,0.1,0.9,0.3
			C80.9,19.5,81,19.8,81.1,20.2z M78.3,21.3h4.5c0-0.5,0-0.9-0.1-1.4c-0.1-0.4-0.3-0.8-0.6-1.2c-0.2-0.3-0.6-0.6-1-0.8
			c-0.4-0.2-0.9-0.3-1.4-0.3c-0.5,0-0.9,0.1-1.3,0.3c-0.4,0.2-0.7,0.4-1,0.7c-0.3,0.3-0.5,0.6-0.6,1s-0.2,0.8-0.2,1.3
			c0,0.5,0.1,0.9,0.2,1.3c0.2,0.4,0.4,0.7,0.6,1s0.6,0.5,1,0.7c0.4,0.2,0.8,0.2,1.3,0.2c0.7,0,1.3-0.2,1.8-0.5
			c0.5-0.3,0.9-0.9,1.1-1.6h-1.5c-0.1,0.2-0.2,0.4-0.5,0.6c-0.2,0.2-0.5,0.3-0.9,0.3c-0.5,0-0.8-0.1-1.1-0.4
			C78.5,22.3,78.4,21.9,78.3,21.3z M83.8,17.8V24h1.7v-2.8c0-0.3,0-0.5,0.1-0.8s0.1-0.4,0.3-0.6c0.1-0.2,0.3-0.3,0.5-0.4
			c0.2-0.1,0.5-0.2,0.8-0.2c0.1,0,0.2,0,0.3,0c0.1,0,0.2,0,0.3,0v-1.6c-0.1,0-0.3-0.1-0.4-0.1c-0.2,0-0.4,0-0.6,0.1
			c-0.2,0.1-0.4,0.2-0.6,0.3c-0.2,0.1-0.3,0.3-0.5,0.4c-0.1,0.2-0.2,0.3-0.3,0.5h0v-1.2H83.8z M92.5,20h1.7c0-0.4-0.1-0.7-0.3-1
			c-0.2-0.3-0.4-0.5-0.7-0.7c-0.3-0.2-0.6-0.3-0.9-0.4c-0.3-0.1-0.7-0.1-1.1-0.1c-0.5,0-1,0.1-1.3,0.3c-0.4,0.2-0.7,0.4-1,0.7
			c-0.3,0.3-0.5,0.7-0.6,1.1c-0.1,0.4-0.2,0.9-0.2,1.3c0,0.5,0.1,0.9,0.2,1.3c0.2,0.4,0.4,0.7,0.6,1c0.3,0.3,0.6,0.5,1,0.7
			c0.4,0.2,0.8,0.2,1.3,0.2c0.8,0,1.5-0.2,2-0.6c0.5-0.4,0.8-1.1,1-1.9h-1.6c-0.1,0.4-0.2,0.7-0.4,0.9c-0.2,0.2-0.5,0.3-0.9,0.3
			c-0.3,0-0.5-0.1-0.7-0.2c-0.2-0.1-0.3-0.3-0.4-0.5c-0.1-0.2-0.2-0.4-0.2-0.6c0-0.2-0.1-0.5-0.1-0.7c0-0.2,0-0.5,0.1-0.7
			c0-0.2,0.1-0.5,0.2-0.6c0.1-0.2,0.3-0.4,0.5-0.5c0.2-0.1,0.4-0.2,0.7-0.2C92,18.9,92.4,19.3,92.5,20z M96.7,20.9
			c0-0.2,0-0.5,0.1-0.7c0-0.2,0.1-0.5,0.2-0.6c0.1-0.2,0.3-0.3,0.5-0.4c0.2-0.1,0.4-0.2,0.7-0.2c0.3,0,0.5,0.1,0.7,0.2
			c0.2,0.1,0.4,0.3,0.5,0.4c0.1,0.2,0.2,0.4,0.3,0.6c0,0.2,0.1,0.5,0.1,0.7c0,0.2,0,0.5-0.1,0.7c0,0.2-0.1,0.4-0.3,0.6
			c-0.1,0.2-0.3,0.3-0.5,0.4c-0.2,0.1-0.4,0.2-0.7,0.2c-0.3,0-0.5-0.1-0.7-0.2c-0.2-0.1-0.3-0.3-0.5-0.4c-0.1-0.2-0.2-0.4-0.2-0.6
			C96.7,21.4,96.7,21.2,96.7,20.9z M95,20.9c0,0.5,0.1,0.9,0.2,1.3c0.2,0.4,0.4,0.7,0.6,1c0.3,0.3,0.6,0.5,1,0.6
			c0.4,0.2,0.8,0.2,1.3,0.2c0.5,0,0.9-0.1,1.3-0.2c0.4-0.2,0.7-0.4,1-0.6c0.3-0.3,0.5-0.6,0.6-1c0.2-0.4,0.2-0.8,0.2-1.3
			c0-0.5-0.1-0.9-0.2-1.3c-0.2-0.4-0.4-0.8-0.6-1c-0.3-0.3-0.6-0.5-1-0.7c-0.4-0.2-0.8-0.2-1.3-0.2c-0.5,0-0.9,0.1-1.3,0.2
			c-0.4,0.2-0.7,0.4-1,0.7c-0.3,0.3-0.5,0.6-0.6,1C95,20,95,20.4,95,20.9z M104,20.9c0-0.2,0-0.5,0.1-0.7c0-0.2,0.1-0.5,0.2-0.6
			c0.1-0.2,0.3-0.3,0.5-0.4c0.2-0.1,0.4-0.2,0.7-0.2s0.5,0.1,0.7,0.2c0.2,0.1,0.4,0.3,0.5,0.4c0.1,0.2,0.2,0.4,0.3,0.6
			c0,0.2,0.1,0.5,0.1,0.7c0,0.2,0,0.5-0.1,0.7c0,0.2-0.1,0.4-0.3,0.6c-0.1,0.2-0.3,0.3-0.5,0.4c-0.2,0.1-0.4,0.2-0.7,0.2
			s-0.5-0.1-0.7-0.2s-0.3-0.3-0.5-0.4c-0.1-0.2-0.2-0.4-0.2-0.6C104,21.4,104,21.2,104,20.9z M102.3,20.9c0,0.5,0.1,0.9,0.2,1.3
			c0.2,0.4,0.4,0.7,0.6,1c0.3,0.3,0.6,0.5,1,0.6s0.8,0.2,1.3,0.2s0.9-0.1,1.3-0.2c0.4-0.2,0.7-0.4,1-0.6c0.3-0.3,0.5-0.6,0.6-1
			c0.2-0.4,0.2-0.8,0.2-1.3c0-0.5-0.1-0.9-0.2-1.3c-0.2-0.4-0.4-0.8-0.6-1c-0.3-0.3-0.6-0.5-1-0.7c-0.4-0.2-0.8-0.2-1.3-0.2
			s-0.9,0.1-1.3,0.2c-0.4,0.2-0.7,0.4-1,0.7c-0.3,0.3-0.5,0.6-0.6,1C102.4,20,102.3,20.4,102.3,20.9z M109.9,15.4V24h1.7v-8.6H109.9
			z M117.1,20.2h-2.8c0-0.1,0-0.3,0.1-0.4c0-0.2,0.1-0.3,0.2-0.4c0.1-0.1,0.3-0.2,0.4-0.3c0.2-0.1,0.4-0.1,0.7-0.1
			c0.4,0,0.7,0.1,0.9,0.3C116.9,19.5,117,19.8,117.1,20.2z M114.3,21.3h4.5c0-0.5,0-0.9-0.1-1.4c-0.1-0.4-0.3-0.8-0.6-1.2
			c-0.2-0.3-0.6-0.6-1-0.8c-0.4-0.2-0.9-0.3-1.4-0.3c-0.5,0-0.9,0.1-1.3,0.3c-0.4,0.2-0.7,0.4-1,0.7c-0.3,0.3-0.5,0.6-0.6,1
			s-0.2,0.8-0.2,1.3c0,0.5,0.1,0.9,0.2,1.3c0.2,0.4,0.4,0.7,0.6,1c0.3,0.3,0.6,0.5,1,0.7c0.4,0.2,0.8,0.2,1.3,0.2
			c0.7,0,1.3-0.2,1.8-0.5s0.9-0.9,1.1-1.6h-1.5c-0.1,0.2-0.2,0.4-0.5,0.6c-0.2,0.2-0.5,0.3-0.9,0.3c-0.5,0-0.8-0.1-1.1-0.4
			C114.5,22.3,114.4,21.9,114.3,21.3z M119.8,17.8V24h1.7v-2.8c0-0.3,0-0.5,0.1-0.8s0.1-0.4,0.3-0.6c0.1-0.2,0.3-0.3,0.5-0.4
			c0.2-0.1,0.5-0.2,0.8-0.2c0.1,0,0.2,0,0.3,0c0.1,0,0.2,0,0.3,0v-1.6c-0.1,0-0.3-0.1-0.4-0.1c-0.2,0-0.4,0-0.6,0.1
			c-0.2,0.1-0.4,0.2-0.6,0.3c-0.2,0.1-0.3,0.3-0.5,0.4c-0.1,0.2-0.2,0.3-0.3,0.5h0v-1.2H119.8z M126.5,19.8v-1.8h-1.9v1.8H126.5z
			 M124.6,22.2V24h1.9v-1.8H124.6z M127.9,17.8V24h1.7v-3.6c0-0.3,0-0.5,0.1-0.7c0.1-0.2,0.2-0.3,0.3-0.4c0.1-0.1,0.3-0.2,0.4-0.2
			c0.1,0,0.2-0.1,0.3-0.1c0.3,0,0.5,0,0.6,0.1c0.1,0.1,0.2,0.2,0.3,0.4c0.1,0.2,0.1,0.3,0.1,0.5c0,0.2,0,0.4,0,0.5V24h1.7v-3.5
			c0-0.2,0-0.4,0-0.6c0-0.2,0.1-0.4,0.2-0.5c0.1-0.2,0.2-0.3,0.3-0.4c0.2-0.1,0.3-0.1,0.6-0.1c0.2,0,0.4,0,0.6,0.1
			c0.1,0.1,0.3,0.2,0.3,0.3c0.1,0.1,0.1,0.3,0.1,0.5c0,0.2,0,0.4,0,0.6V24h1.7v-4.2c0-0.4-0.1-0.7-0.2-1c-0.1-0.3-0.3-0.5-0.5-0.7
			s-0.4-0.3-0.7-0.4s-0.6-0.1-0.9-0.1c-0.4,0-0.8,0.1-1.1,0.3c-0.3,0.2-0.6,0.4-0.7,0.7c-0.2-0.4-0.4-0.7-0.7-0.8
			c-0.3-0.2-0.7-0.2-1.1-0.2c-0.4,0-0.8,0.1-1.1,0.3c-0.3,0.2-0.6,0.4-0.8,0.7h0v-0.8H127.9z M138.6,19.7c0-0.4,0.1-0.7,0.3-1
			s0.4-0.5,0.7-0.6s0.6-0.3,0.9-0.3c0.3-0.1,0.7-0.1,1-0.1c0.3,0,0.6,0,0.9,0.1c0.3,0,0.6,0.1,0.9,0.3c0.3,0.1,0.5,0.3,0.6,0.5
			c0.2,0.2,0.3,0.5,0.3,0.9v3.2c0,0.3,0,0.5,0,0.8s0.1,0.4,0.2,0.6h-1.7c0-0.1-0.1-0.2-0.1-0.3c0-0.1,0-0.2,0-0.3
			c-0.3,0.3-0.6,0.5-1,0.6c-0.4,0.1-0.7,0.2-1.1,0.2c-0.3,0-0.6,0-0.8-0.1c-0.3-0.1-0.5-0.2-0.7-0.3s-0.3-0.3-0.5-0.6
			c-0.1-0.2-0.2-0.5-0.2-0.8c0-0.4,0.1-0.6,0.2-0.9c0.1-0.2,0.3-0.4,0.5-0.6c0.2-0.1,0.4-0.2,0.7-0.3c0.3-0.1,0.5-0.1,0.8-0.2
			c0.3,0,0.5-0.1,0.8-0.1c0.2,0,0.5-0.1,0.7-0.1c0.2,0,0.3-0.1,0.5-0.2c0.1-0.1,0.2-0.2,0.2-0.4c0-0.2,0-0.3-0.1-0.4
			c-0.1-0.1-0.1-0.2-0.2-0.3c-0.1-0.1-0.2-0.1-0.3-0.1c-0.1,0-0.3,0-0.4,0c-0.3,0-0.6,0.1-0.8,0.2c-0.2,0.1-0.3,0.4-0.3,0.7H138.6z
			 M142.6,21c-0.1,0.1-0.2,0.1-0.3,0.2c-0.1,0-0.2,0.1-0.3,0.1c-0.1,0-0.2,0-0.4,0.1c-0.1,0-0.3,0-0.4,0.1c-0.1,0-0.3,0.1-0.4,0.1
			c-0.1,0-0.2,0.1-0.3,0.2c-0.1,0.1-0.2,0.1-0.2,0.3s-0.1,0.2-0.1,0.4c0,0.2,0,0.3,0.1,0.4s0.1,0.2,0.2,0.3c0.1,0.1,0.2,0.1,0.3,0.1
			s0.3,0,0.4,0c0.3,0,0.6-0.1,0.8-0.2c0.2-0.1,0.3-0.2,0.4-0.4c0.1-0.2,0.1-0.3,0.2-0.5c0-0.2,0-0.3,0-0.4V21z M147.8,17.8v-1.9H146
			v1.9h-1v1.1h1v3.7c0,0.3,0.1,0.6,0.2,0.8c0.1,0.2,0.2,0.3,0.4,0.4c0.2,0.1,0.4,0.2,0.6,0.2c0.2,0,0.5,0.1,0.8,0.1
			c0.2,0,0.3,0,0.5,0c0.2,0,0.3,0,0.5,0v-1.3c-0.1,0-0.2,0-0.3,0c-0.1,0-0.2,0-0.3,0c-0.3,0-0.5,0-0.6-0.1c-0.1-0.1-0.1-0.3-0.1-0.6
			v-3.1h1.2v-1.1H147.8z M149.8,17.8V24h1.7v-2.8c0-0.3,0-0.5,0.1-0.8s0.1-0.4,0.3-0.6c0.1-0.2,0.3-0.3,0.5-0.4
			c0.2-0.1,0.5-0.2,0.8-0.2c0.1,0,0.2,0,0.3,0c0.1,0,0.2,0,0.3,0v-1.6c-0.1,0-0.3-0.1-0.4-0.1c-0.2,0-0.4,0-0.6,0.1
			c-0.2,0.1-0.4,0.2-0.6,0.3c-0.2,0.1-0.3,0.3-0.5,0.4c-0.1,0.2-0.2,0.3-0.3,0.5h0v-1.2H149.8z M156.2,16.8v-1.4h-1.7v1.4H156.2z
			 M154.5,17.8V24h1.7v-6.2H154.5z M159.2,20.7l-2.2,3.3h1.9l1.3-2l1.3,2h1.9l-2.3-3.3l2-2.9h-1.9l-1.1,1.6l-1.1-1.6h-1.9
			L159.2,20.7z M164.1,22.2V24h1.9v-1.8H164.1z M168.9,20.9c0-0.2,0-0.5,0.1-0.7c0-0.2,0.1-0.5,0.2-0.6c0.1-0.2,0.3-0.3,0.5-0.4
			c0.2-0.1,0.4-0.2,0.7-0.2c0.3,0,0.5,0.1,0.7,0.2c0.2,0.1,0.4,0.3,0.5,0.4c0.1,0.2,0.2,0.4,0.3,0.6c0,0.2,0.1,0.5,0.1,0.7
			c0,0.2,0,0.5-0.1,0.7c0,0.2-0.1,0.4-0.3,0.6c-0.1,0.2-0.3,0.3-0.5,0.4c-0.2,0.1-0.4,0.2-0.7,0.2c-0.3,0-0.5-0.1-0.7-0.2
			s-0.3-0.3-0.5-0.4c-0.1-0.2-0.2-0.4-0.2-0.6C168.9,21.4,168.9,21.2,168.9,20.9z M167.2,20.9c0,0.5,0.1,0.9,0.2,1.3
			c0.2,0.4,0.4,0.7,0.6,1c0.3,0.3,0.6,0.5,1,0.6s0.8,0.2,1.3,0.2c0.5,0,0.9-0.1,1.3-0.2c0.4-0.2,0.7-0.4,1-0.6
			c0.3-0.3,0.5-0.6,0.6-1c0.2-0.4,0.2-0.8,0.2-1.3c0-0.5-0.1-0.9-0.2-1.3c-0.2-0.4-0.4-0.8-0.6-1c-0.3-0.3-0.6-0.5-1-0.7
			c-0.4-0.2-0.8-0.2-1.3-0.2c-0.5,0-0.9,0.1-1.3,0.2c-0.4,0.2-0.7,0.4-1,0.7c-0.3,0.3-0.5,0.6-0.6,1C167.2,20,167.2,20.4,167.2,20.9
			z M174.7,17.8V24h1.7v-2.8c0-0.3,0-0.5,0.1-0.8s0.1-0.4,0.3-0.6c0.1-0.2,0.3-0.3,0.5-0.4c0.2-0.1,0.5-0.2,0.8-0.2
			c0.1,0,0.2,0,0.3,0c0.1,0,0.2,0,0.3,0v-1.6c-0.1,0-0.3-0.1-0.4-0.1c-0.2,0-0.4,0-0.6,0.1c-0.2,0.1-0.4,0.2-0.6,0.3
			c-0.2,0.1-0.3,0.3-0.5,0.4c-0.1,0.2-0.2,0.3-0.3,0.5h0v-1.2H174.7z M181.9,22.5c-0.3,0-0.5-0.1-0.7-0.2c-0.2-0.1-0.3-0.3-0.4-0.4
			c-0.1-0.2-0.2-0.4-0.2-0.6c0-0.2-0.1-0.4-0.1-0.7c0-0.2,0-0.5,0.1-0.7c0.1-0.2,0.1-0.4,0.3-0.6c0.1-0.2,0.3-0.3,0.4-0.4
			c0.2-0.1,0.4-0.1,0.6-0.1c0.3,0,0.5,0.1,0.7,0.2c0.2,0.1,0.3,0.2,0.4,0.4c0.1,0.2,0.2,0.4,0.2,0.6c0,0.2,0.1,0.5,0.1,0.7
			c0,0.2,0,0.4-0.1,0.6c-0.1,0.2-0.1,0.4-0.3,0.5c-0.1,0.2-0.3,0.3-0.5,0.4S182.1,22.5,181.9,22.5z M185,23.6v-5.8h-1.6v0.8h0
			c-0.2-0.4-0.5-0.6-0.8-0.8c-0.3-0.2-0.7-0.2-1.1-0.2c-0.4,0-0.8,0.1-1.2,0.3c-0.3,0.2-0.6,0.4-0.8,0.7c-0.2,0.3-0.4,0.6-0.5,1
			c-0.1,0.4-0.2,0.8-0.2,1.2c0,0.4,0,0.8,0.1,1.2c0.1,0.4,0.3,0.7,0.5,1c0.2,0.3,0.5,0.5,0.8,0.7c0.3,0.2,0.7,0.2,1.2,0.2
			c0.4,0,0.7-0.1,1.1-0.2c0.3-0.2,0.6-0.4,0.8-0.7h0v0.8c0,0.4-0.1,0.8-0.3,1.1c-0.2,0.3-0.6,0.4-1,0.4c-0.3,0-0.6-0.1-0.8-0.2
			c-0.2-0.1-0.4-0.3-0.5-0.7H179c0,0.4,0.1,0.7,0.3,0.9c0.2,0.3,0.4,0.5,0.6,0.6c0.3,0.2,0.6,0.3,0.9,0.3c0.3,0.1,0.6,0.1,0.9,0.1
			c0.7,0,1.3-0.1,1.7-0.3c0.4-0.2,0.7-0.4,1-0.7c0.2-0.3,0.4-0.6,0.4-0.9C184.9,24.1,185,23.9,185,23.6z"/>
		<circle class="st2" cx="20" cy="58" r="8"/>
		<path d="M39.3,59.7l1.1-3.1h0l1.1,3.1H39.3z M39.5,54.4L36.2,63h1.9l0.7-1.9H42l0.6,1.9h2l-3.2-8.6H39.5z M45.2,54.4V63h1.7v-8.6
			H45.2z M50,55.8v-1.4h-1.7v1.4H50z M48.3,56.8V63H50v-6.2H48.3z M55.6,59h1.7c0-0.4-0.1-0.7-0.3-1c-0.2-0.3-0.4-0.5-0.7-0.7
			c-0.3-0.2-0.6-0.3-0.9-0.4c-0.3-0.1-0.7-0.1-1.1-0.1c-0.5,0-1,0.1-1.3,0.3c-0.4,0.2-0.7,0.4-1,0.7c-0.3,0.3-0.5,0.7-0.6,1.1
			c-0.1,0.4-0.2,0.9-0.2,1.3c0,0.5,0.1,0.9,0.2,1.3c0.2,0.4,0.4,0.7,0.6,1c0.3,0.3,0.6,0.5,1,0.7c0.4,0.2,0.8,0.2,1.3,0.2
			c0.8,0,1.5-0.2,2-0.6s0.8-1.1,1-1.9h-1.6c-0.1,0.4-0.2,0.7-0.4,0.9c-0.2,0.2-0.5,0.3-0.9,0.3c-0.3,0-0.5-0.1-0.7-0.2
			c-0.2-0.1-0.3-0.3-0.4-0.5c-0.1-0.2-0.2-0.4-0.2-0.6c0-0.2-0.1-0.5-0.1-0.7c0-0.2,0-0.5,0.1-0.7c0-0.2,0.1-0.5,0.2-0.6
			c0.1-0.2,0.3-0.4,0.5-0.5c0.2-0.1,0.4-0.2,0.7-0.2C55,57.9,55.5,58.3,55.6,59z M62.4,59.2h-2.8c0-0.1,0-0.3,0.1-0.4
			c0-0.2,0.1-0.3,0.2-0.4c0.1-0.1,0.3-0.2,0.4-0.3c0.2-0.1,0.4-0.1,0.7-0.1c0.4,0,0.7,0.1,0.9,0.3C62.2,58.5,62.3,58.8,62.4,59.2z
			 M59.6,60.3h4.5c0-0.5,0-0.9-0.1-1.4c-0.1-0.4-0.3-0.8-0.6-1.2c-0.2-0.3-0.6-0.6-1-0.8c-0.4-0.2-0.9-0.3-1.4-0.3
			c-0.5,0-0.9,0.1-1.3,0.3c-0.4,0.2-0.7,0.4-1,0.7c-0.3,0.3-0.5,0.6-0.6,1c-0.2,0.4-0.2,0.8-0.2,1.3c0,0.5,0.1,0.9,0.2,1.3
			c0.2,0.4,0.4,0.7,0.6,1c0.3,0.3,0.6,0.5,1,0.7c0.4,0.2,0.8,0.2,1.3,0.2c0.7,0,1.3-0.2,1.8-0.5c0.5-0.3,0.9-0.9,1.1-1.6h-1.5
			c-0.1,0.2-0.2,0.4-0.5,0.6c-0.2,0.2-0.5,0.3-0.9,0.3c-0.5,0-0.8-0.1-1.1-0.4C59.8,61.3,59.7,60.9,59.6,60.3z M67.1,58.8v-1.8h-1.9
			v1.8H67.1z M65.2,61.2V63h1.9v-1.8H65.2z M72.1,54.4V63h1.1v-3.9h4.5V63h1.1v-8.6h-1.1v3.7h-4.5v-3.7H72.1z M81.7,55.7v-1.2h-1
			v1.2H81.7z M80.7,56.8V63h1v-6.2H80.7z M92.1,63c-0.2,0.1-0.4,0.2-0.7,0.2c-0.3,0-0.5-0.1-0.6-0.2c-0.2-0.2-0.2-0.4-0.2-0.7
			c-0.3,0.3-0.6,0.6-1,0.7c-0.4,0.1-0.8,0.2-1.2,0.2c-0.3,0-0.5,0-0.8-0.1c-0.2-0.1-0.5-0.2-0.6-0.3s-0.3-0.3-0.4-0.5
			c-0.1-0.2-0.2-0.5-0.2-0.8c0-0.4,0.1-0.6,0.2-0.9c0.1-0.2,0.3-0.4,0.5-0.5c0.2-0.1,0.4-0.3,0.7-0.3c0.3-0.1,0.5-0.1,0.8-0.2
			c0.3-0.1,0.5-0.1,0.8-0.1c0.3,0,0.5-0.1,0.7-0.1c0.2-0.1,0.3-0.1,0.5-0.2c0.1-0.1,0.2-0.3,0.2-0.4c0-0.2,0-0.4-0.1-0.5
			c-0.1-0.1-0.2-0.2-0.3-0.3c-0.1-0.1-0.3-0.1-0.4-0.1c-0.2,0-0.3,0-0.5,0c-0.4,0-0.8,0.1-1.1,0.3c-0.3,0.2-0.4,0.5-0.5,0.9h-1
			c0-0.4,0.1-0.7,0.2-1c0.1-0.3,0.3-0.5,0.6-0.6c0.2-0.2,0.5-0.3,0.8-0.4c0.3-0.1,0.6-0.1,1-0.1c0.3,0,0.6,0,0.8,0.1
			c0.3,0,0.5,0.1,0.8,0.3c0.2,0.1,0.4,0.3,0.5,0.5s0.2,0.5,0.2,0.9v3.2c0,0.2,0,0.4,0,0.5c0,0.1,0.1,0.2,0.3,0.2
			c0.1,0,0.2,0,0.3-0.1V63z M90.4,59.8c-0.1,0.1-0.3,0.2-0.5,0.2c-0.2,0-0.4,0.1-0.7,0.1c-0.2,0-0.5,0.1-0.7,0.1
			c-0.2,0-0.4,0.1-0.6,0.2c-0.2,0.1-0.3,0.2-0.5,0.3c-0.1,0.1-0.2,0.3-0.2,0.6c0,0.2,0,0.3,0.1,0.4c0.1,0.1,0.2,0.2,0.3,0.3
			c0.1,0.1,0.2,0.1,0.4,0.2c0.1,0,0.3,0,0.5,0c0.3,0,0.6,0,0.9-0.1c0.2-0.1,0.4-0.2,0.6-0.3c0.2-0.1,0.3-0.3,0.3-0.5
			c0.1-0.2,0.1-0.3,0.1-0.5V59.8z M93.1,54.4V63h1v-8.6H93.1z M95.8,54.4V63h1v-8.6H95.8z M98.5,61.7V63h1.3v-1.3H98.5z M99.7,57.1
			v-2.6h-1.1v2.6l0.3,3.7h0.5L99.7,57.1z"/>
		<circle class="st2" cx="20" cy="86" r="8"/>
		<path d="M39.1,85.9v-2h1.8c0.2,0,0.3,0,0.5,0c0.2,0,0.3,0.1,0.4,0.1c0.1,0.1,0.2,0.2,0.3,0.3c0.1,0.1,0.1,0.3,0.1,0.5
			c0,0.4-0.1,0.6-0.3,0.8c-0.2,0.2-0.5,0.2-0.8,0.2H39.1z M37.3,82.4V91h4.2c0.4,0,0.8,0,1.1-0.1c0.4-0.1,0.7-0.2,1-0.4
			c0.3-0.2,0.5-0.5,0.7-0.8c0.2-0.3,0.3-0.7,0.3-1.1c0-0.5-0.1-1-0.4-1.4c-0.3-0.4-0.6-0.7-1.2-0.8c0.4-0.2,0.7-0.4,0.9-0.7
			c0.2-0.3,0.3-0.6,0.3-1.1c0-0.4-0.1-0.7-0.2-1c-0.1-0.3-0.3-0.5-0.6-0.6c-0.2-0.2-0.5-0.3-0.9-0.4c-0.3-0.1-0.7-0.1-1.1-0.1H37.3z
			 M39.1,89.5v-2.4h2.1c0.4,0,0.7,0.1,1,0.3c0.2,0.2,0.4,0.5,0.4,0.9c0,0.2,0,0.4-0.1,0.6c-0.1,0.1-0.2,0.3-0.3,0.3
			c-0.1,0.1-0.3,0.1-0.4,0.2c-0.2,0-0.3,0-0.5,0H39.1z M47,87.9c0-0.2,0-0.5,0.1-0.7c0-0.2,0.1-0.5,0.2-0.6c0.1-0.2,0.3-0.3,0.5-0.4
			c0.2-0.1,0.4-0.2,0.7-0.2c0.3,0,0.5,0.1,0.7,0.2c0.2,0.1,0.4,0.3,0.5,0.4c0.1,0.2,0.2,0.4,0.3,0.6c0,0.2,0.1,0.5,0.1,0.7
			s0,0.5-0.1,0.7c0,0.2-0.1,0.4-0.3,0.6c-0.1,0.2-0.3,0.3-0.5,0.4c-0.2,0.1-0.4,0.2-0.7,0.2c-0.3,0-0.5-0.1-0.7-0.2
			c-0.2-0.1-0.3-0.3-0.5-0.4c-0.1-0.2-0.2-0.4-0.2-0.6C47.1,88.4,47,88.2,47,87.9z M45.3,87.9c0,0.5,0.1,0.9,0.2,1.3
			c0.2,0.4,0.4,0.7,0.6,1c0.3,0.3,0.6,0.5,1,0.6s0.8,0.2,1.3,0.2s0.9-0.1,1.3-0.2c0.4-0.2,0.7-0.4,1-0.6c0.3-0.3,0.5-0.6,0.6-1
			c0.2-0.4,0.2-0.8,0.2-1.3s-0.1-0.9-0.2-1.3c-0.2-0.4-0.4-0.8-0.6-1c-0.3-0.3-0.6-0.5-1-0.7c-0.4-0.2-0.8-0.2-1.3-0.2
			s-0.9,0.1-1.3,0.2c-0.4,0.2-0.7,0.4-1,0.7c-0.3,0.3-0.5,0.6-0.6,1C45.4,87,45.3,87.4,45.3,87.9z M57.4,87.9c0,0.3,0,0.5-0.1,0.7
			c-0.1,0.2-0.1,0.5-0.3,0.6c-0.1,0.2-0.3,0.3-0.5,0.4c-0.2,0.1-0.4,0.2-0.6,0.2c-0.2,0-0.5-0.1-0.6-0.2c-0.2-0.1-0.3-0.3-0.5-0.4
			c-0.1-0.2-0.2-0.4-0.3-0.6c-0.1-0.2-0.1-0.5-0.1-0.7c0-0.3,0-0.5,0.1-0.8c0.1-0.2,0.1-0.5,0.3-0.6c0.1-0.2,0.3-0.3,0.5-0.4
			c0.2-0.1,0.4-0.2,0.6-0.2c0.3,0,0.5,0.1,0.6,0.2c0.2,0.1,0.3,0.2,0.5,0.4c0.1,0.2,0.2,0.4,0.3,0.6C57.4,87.4,57.4,87.6,57.4,87.9z
			 M52.9,82.4V91h1.6v-0.8h0c0.2,0.3,0.5,0.6,0.8,0.7c0.4,0.1,0.8,0.2,1.2,0.2c0.3,0,0.6-0.1,0.9-0.2c0.3-0.1,0.6-0.3,0.8-0.6
			c0.2-0.3,0.4-0.6,0.6-1c0.2-0.4,0.2-0.9,0.2-1.5s-0.1-1.1-0.2-1.5c-0.2-0.4-0.4-0.8-0.6-1c-0.2-0.3-0.5-0.5-0.8-0.6
			c-0.3-0.1-0.6-0.2-0.9-0.2c-0.4,0-0.8,0.1-1.1,0.2c-0.4,0.1-0.6,0.4-0.8,0.7h0v-3.1H52.9z M62.2,86.8v-1.8h-1.9v1.8H62.2z
			 M60.3,89.2V91h1.9v-1.8H60.3z M67,82.4V91h1v-3.5c0-0.3,0-0.5,0.1-0.8c0.1-0.2,0.2-0.4,0.3-0.6c0.2-0.2,0.3-0.3,0.6-0.4
			c0.2-0.1,0.5-0.1,0.8-0.1c0.4,0,0.7,0.1,0.9,0.3s0.3,0.5,0.3,0.9V91h1v-4.1c0-0.3,0-0.6-0.1-0.9c-0.1-0.3-0.2-0.5-0.3-0.7
			c-0.2-0.2-0.4-0.4-0.7-0.5c-0.3-0.1-0.6-0.2-1-0.2c-0.2,0-0.4,0-0.6,0.1c-0.2,0-0.4,0.1-0.6,0.2c-0.2,0.1-0.3,0.2-0.5,0.3
			c-0.1,0.1-0.3,0.3-0.3,0.5h0v-3.3H67z M78,87.3h-3.6c0-0.2,0.1-0.5,0.2-0.7c0.1-0.2,0.2-0.4,0.4-0.6c0.2-0.2,0.3-0.3,0.5-0.4
			c0.2-0.1,0.5-0.1,0.7-0.1c0.3,0,0.5,0,0.7,0.1c0.2,0.1,0.4,0.2,0.6,0.4c0.2,0.2,0.3,0.3,0.4,0.6C77.9,86.8,78,87.1,78,87.3z
			 M79,89h-1c-0.1,0.4-0.3,0.7-0.6,0.9c-0.3,0.2-0.6,0.3-1.1,0.3c-0.3,0-0.6-0.1-0.9-0.2c-0.2-0.1-0.5-0.3-0.6-0.4
			c-0.2-0.2-0.3-0.4-0.3-0.6c-0.1-0.2-0.1-0.5-0.1-0.8h4.6c0-0.4,0-0.8-0.1-1.2c-0.1-0.4-0.2-0.8-0.5-1.2c-0.2-0.4-0.5-0.6-0.9-0.9
			c-0.4-0.2-0.8-0.3-1.4-0.3c-0.4,0-0.8,0.1-1.2,0.2c-0.4,0.2-0.7,0.4-0.9,0.7c-0.3,0.3-0.5,0.6-0.6,1c-0.1,0.4-0.2,0.8-0.2,1.3
			c0,0.5,0.1,0.9,0.2,1.3c0.1,0.4,0.3,0.7,0.6,1s0.6,0.5,0.9,0.7c0.4,0.2,0.8,0.2,1.3,0.2c0.7,0,1.3-0.2,1.8-0.5
			C78.5,90.3,78.8,89.7,79,89z M80.2,82.4V91h1v-8.6H80.2z M82.8,82.4V91h1v-8.6H82.8z M86.2,87.9c0-0.4,0-0.7,0.1-1
			c0.1-0.3,0.2-0.5,0.4-0.7c0.2-0.2,0.4-0.4,0.6-0.5c0.2-0.1,0.5-0.2,0.8-0.2s0.5,0.1,0.7,0.2c0.2,0.1,0.4,0.3,0.6,0.5
			c0.2,0.2,0.3,0.4,0.4,0.7c0.1,0.3,0.2,0.6,0.2,1s-0.1,0.7-0.2,1c-0.1,0.3-0.2,0.5-0.4,0.7c-0.2,0.2-0.4,0.3-0.6,0.4
			c-0.2,0.1-0.5,0.2-0.7,0.2s-0.5-0.1-0.8-0.2c-0.2-0.1-0.4-0.3-0.6-0.4c-0.2-0.2-0.3-0.4-0.4-0.7C86.2,88.6,86.2,88.3,86.2,87.9z
			 M85.1,87.9c0,0.5,0.1,0.9,0.2,1.3c0.1,0.4,0.3,0.7,0.6,1c0.3,0.3,0.6,0.5,0.9,0.7c0.4,0.2,0.8,0.2,1.3,0.2c0.5,0,0.9-0.1,1.3-0.2
			c0.4-0.2,0.7-0.4,0.9-0.7c0.3-0.3,0.4-0.6,0.6-1c0.1-0.4,0.2-0.8,0.2-1.3s-0.1-0.9-0.2-1.3c-0.1-0.4-0.3-0.7-0.6-1
			c-0.3-0.3-0.6-0.5-0.9-0.7c-0.4-0.2-0.8-0.3-1.3-0.3c-0.5,0-0.9,0.1-1.3,0.3s-0.7,0.4-0.9,0.7c-0.3,0.3-0.4,0.6-0.6,1
			C85.2,87,85.1,87.4,85.1,87.9z"/>
		<circle class="st2" cx="20" cy="114" r="8"/>
		<path d="M42.6,113.3h1.8c-0.1-0.5-0.2-0.9-0.4-1.3c-0.2-0.4-0.5-0.7-0.8-1c-0.3-0.3-0.7-0.5-1.1-0.6c-0.4-0.1-0.9-0.2-1.3-0.2
			c-0.7,0-1.2,0.1-1.8,0.3c-0.5,0.2-1,0.6-1.3,1c-0.4,0.4-0.6,0.9-0.8,1.4c-0.2,0.5-0.3,1.1-0.3,1.8c0,0.6,0.1,1.2,0.3,1.8
			c0.2,0.5,0.5,1,0.8,1.4c0.4,0.4,0.8,0.7,1.3,0.9c0.5,0.2,1.1,0.3,1.8,0.3c0.5,0,1-0.1,1.5-0.2c0.4-0.2,0.8-0.4,1.2-0.7
			c0.3-0.3,0.6-0.7,0.8-1.1c0.2-0.4,0.3-0.9,0.4-1.5h-1.8c-0.1,0.6-0.3,1-0.6,1.4c-0.3,0.4-0.8,0.5-1.3,0.5c-0.4,0-0.8-0.1-1.1-0.2
			c-0.3-0.2-0.5-0.4-0.7-0.7c-0.2-0.3-0.3-0.6-0.4-0.9c-0.1-0.3-0.1-0.7-0.1-1.1c0-0.4,0-0.7,0.1-1.1c0.1-0.4,0.2-0.7,0.4-0.9
			c0.2-0.3,0.4-0.5,0.7-0.7c0.3-0.2,0.7-0.3,1.1-0.3c0.2,0,0.5,0,0.7,0.1c0.2,0.1,0.4,0.2,0.6,0.3c0.2,0.1,0.3,0.3,0.4,0.5
			C42.5,112.9,42.6,113.1,42.6,113.3z M45.6,114.7c0-0.4,0.1-0.7,0.3-1c0.2-0.3,0.4-0.5,0.7-0.6c0.3-0.2,0.6-0.3,0.9-0.3
			c0.3-0.1,0.7-0.1,1-0.1c0.3,0,0.6,0,0.9,0.1c0.3,0,0.6,0.1,0.9,0.3c0.3,0.1,0.5,0.3,0.6,0.5c0.2,0.2,0.3,0.5,0.3,0.9v3.2
			c0,0.3,0,0.5,0,0.8c0,0.3,0.1,0.4,0.2,0.6h-1.7c0-0.1-0.1-0.2-0.1-0.3c0-0.1,0-0.2,0-0.3c-0.3,0.3-0.6,0.5-1,0.6s-0.7,0.2-1.1,0.2
			c-0.3,0-0.6,0-0.8-0.1c-0.3-0.1-0.5-0.2-0.7-0.3c-0.2-0.2-0.3-0.3-0.5-0.6c-0.1-0.2-0.2-0.5-0.2-0.8c0-0.4,0.1-0.6,0.2-0.9
			c0.1-0.2,0.3-0.4,0.5-0.6c0.2-0.1,0.4-0.2,0.7-0.3c0.3-0.1,0.5-0.1,0.8-0.2c0.3,0,0.5-0.1,0.8-0.1c0.2,0,0.5-0.1,0.7-0.1
			c0.2,0,0.3-0.1,0.5-0.2c0.1-0.1,0.2-0.2,0.2-0.4c0-0.2,0-0.3-0.1-0.4c-0.1-0.1-0.1-0.2-0.2-0.3c-0.1-0.1-0.2-0.1-0.3-0.1
			c-0.1,0-0.3,0-0.4,0c-0.3,0-0.6,0.1-0.8,0.2c-0.2,0.1-0.3,0.4-0.3,0.7H45.6z M49.5,116c-0.1,0.1-0.2,0.1-0.3,0.2
			c-0.1,0-0.2,0.1-0.3,0.1c-0.1,0-0.2,0-0.4,0.1c-0.1,0-0.3,0-0.4,0.1c-0.1,0-0.3,0.1-0.4,0.1c-0.1,0-0.2,0.1-0.3,0.2
			c-0.1,0.1-0.2,0.1-0.2,0.3c-0.1,0.1-0.1,0.2-0.1,0.4c0,0.2,0,0.3,0.1,0.4c0.1,0.1,0.1,0.2,0.2,0.3c0.1,0.1,0.2,0.1,0.3,0.1
			c0.1,0,0.3,0,0.4,0c0.3,0,0.6-0.1,0.8-0.2c0.2-0.1,0.3-0.2,0.4-0.4c0.1-0.2,0.1-0.3,0.2-0.5c0-0.2,0-0.3,0-0.4V116z M52.5,112.8
			v6.2h1.7v-2.8c0-0.3,0-0.5,0.1-0.8c0.1-0.2,0.1-0.4,0.3-0.6c0.1-0.2,0.3-0.3,0.5-0.4c0.2-0.1,0.5-0.2,0.8-0.2c0.1,0,0.2,0,0.3,0
			c0.1,0,0.2,0,0.3,0v-1.6c-0.1,0-0.3-0.1-0.4-0.1c-0.2,0-0.4,0-0.6,0.1c-0.2,0.1-0.4,0.2-0.6,0.3c-0.2,0.1-0.3,0.3-0.5,0.4
			c-0.1,0.2-0.2,0.3-0.3,0.5h0v-1.2H52.5z M58.5,115.9c0-0.2,0-0.5,0.1-0.7c0-0.2,0.1-0.5,0.2-0.6c0.1-0.2,0.3-0.3,0.5-0.4
			c0.2-0.1,0.4-0.2,0.7-0.2c0.3,0,0.5,0.1,0.7,0.2c0.2,0.1,0.4,0.3,0.5,0.4c0.1,0.2,0.2,0.4,0.3,0.6c0,0.2,0.1,0.5,0.1,0.7
			s0,0.5-0.1,0.7c0,0.2-0.1,0.4-0.3,0.6c-0.1,0.2-0.3,0.3-0.5,0.4c-0.2,0.1-0.4,0.2-0.7,0.2c-0.3,0-0.5-0.1-0.7-0.2
			c-0.2-0.1-0.3-0.3-0.5-0.4c-0.1-0.2-0.2-0.4-0.2-0.6C58.5,116.4,58.5,116.2,58.5,115.9z M56.8,115.9c0,0.5,0.1,0.9,0.2,1.3
			s0.4,0.7,0.6,1c0.3,0.3,0.6,0.5,1,0.6c0.4,0.2,0.8,0.2,1.3,0.2s0.9-0.1,1.3-0.2c0.4-0.2,0.7-0.4,1-0.6c0.3-0.3,0.5-0.6,0.6-1
			c0.2-0.4,0.2-0.8,0.2-1.3s-0.1-0.9-0.2-1.3c-0.2-0.4-0.4-0.8-0.6-1c-0.3-0.3-0.6-0.5-1-0.7c-0.4-0.2-0.8-0.2-1.3-0.2
			s-0.9,0.1-1.3,0.2c-0.4,0.2-0.7,0.4-1,0.7c-0.3,0.3-0.5,0.6-0.6,1C56.9,115,56.8,115.4,56.8,115.9z M64.4,110.4v8.6h1.7v-8.6H64.4
			z M69.4,114.8v-1.8h-1.9v1.8H69.4z M67.5,117.2v1.8h1.9v-1.8H67.5z M74.4,110.4v8.6h1.1v-7.1h0l2.7,7.1h1l2.7-7.1h0v7.1h1.1v-8.6
			h-1.6l-2.7,7.2l-2.7-7.2H74.4z M85.4,115.9c0-0.4,0-0.7,0.1-1c0.1-0.3,0.2-0.5,0.4-0.7c0.2-0.2,0.4-0.4,0.6-0.5
			c0.2-0.1,0.5-0.2,0.8-0.2s0.5,0.1,0.7,0.2c0.2,0.1,0.4,0.3,0.6,0.5c0.2,0.2,0.3,0.4,0.4,0.7c0.1,0.3,0.2,0.6,0.2,1s-0.1,0.7-0.2,1
			c-0.1,0.3-0.2,0.5-0.4,0.7c-0.2,0.2-0.4,0.3-0.6,0.4c-0.2,0.1-0.5,0.2-0.7,0.2s-0.5-0.1-0.8-0.2c-0.2-0.1-0.4-0.3-0.6-0.4
			c-0.2-0.2-0.3-0.4-0.4-0.7C85.5,116.6,85.4,116.3,85.4,115.9z M84.3,115.9c0,0.5,0.1,0.9,0.2,1.3c0.1,0.4,0.3,0.7,0.6,1
			c0.3,0.3,0.6,0.5,0.9,0.7c0.4,0.2,0.8,0.2,1.3,0.2c0.5,0,0.9-0.1,1.3-0.2c0.4-0.2,0.7-0.4,0.9-0.7c0.3-0.3,0.4-0.6,0.6-1
			c0.1-0.4,0.2-0.8,0.2-1.3s-0.1-0.9-0.2-1.3c-0.1-0.4-0.3-0.7-0.6-1c-0.3-0.3-0.6-0.5-0.9-0.7c-0.4-0.2-0.8-0.3-1.3-0.3
			c-0.5,0-0.9,0.1-1.3,0.3s-0.7,0.4-0.9,0.7c-0.3,0.3-0.4,0.6-0.6,1C84.4,115,84.3,115.4,84.3,115.9z M91.5,112.8v6.2h1v-2.8
			c0-0.4,0-0.8,0.1-1.1c0.1-0.3,0.2-0.6,0.4-0.8c0.2-0.2,0.4-0.4,0.7-0.5s0.6-0.2,1-0.2v-1.1c-0.6,0-1,0.1-1.4,0.3
			c-0.4,0.2-0.7,0.6-0.9,1.1h0v-1.3H91.5z M95.8,112.8v6.2h1v-3.5c0-0.3,0-0.5,0.1-0.8c0.1-0.2,0.2-0.4,0.3-0.6
			c0.2-0.2,0.3-0.3,0.6-0.4c0.2-0.1,0.5-0.1,0.8-0.1c0.4,0,0.7,0.1,0.9,0.3s0.3,0.5,0.3,0.9v4.2h1v-4.1c0-0.3,0-0.6-0.1-0.9
			c-0.1-0.3-0.2-0.5-0.3-0.7c-0.2-0.2-0.4-0.4-0.7-0.5c-0.3-0.1-0.6-0.2-1-0.2c-0.9,0-1.6,0.4-2,1.1h0v-1H95.8z M103.5,111.7v-1.2
			h-1v1.2H103.5z M102.5,112.8v6.2h1v-6.2H102.5z M105.1,112.8v6.2h1v-3.5c0-0.3,0-0.5,0.1-0.8c0.1-0.2,0.2-0.4,0.3-0.6
			c0.2-0.2,0.3-0.3,0.6-0.4c0.2-0.1,0.5-0.1,0.8-0.1c0.4,0,0.7,0.1,0.9,0.3c0.2,0.2,0.3,0.5,0.3,0.9v4.2h1v-4.1c0-0.3,0-0.6-0.1-0.9
			c-0.1-0.3-0.2-0.5-0.3-0.7c-0.2-0.2-0.4-0.4-0.7-0.5c-0.3-0.1-0.6-0.2-1-0.2c-0.9,0-1.6,0.4-2,1.1h0v-1H105.1z M117.1,118.5v-5.7
			h-1v0.9h0c-0.2-0.3-0.4-0.6-0.8-0.8c-0.3-0.2-0.7-0.3-1.1-0.3c-0.5,0-1,0.1-1.4,0.3c-0.4,0.2-0.7,0.5-0.9,0.8
			c-0.2,0.3-0.4,0.7-0.5,1.1c-0.1,0.4-0.1,0.8-0.1,1.1c0,0.4,0.1,0.8,0.2,1.2c0.1,0.4,0.3,0.7,0.5,1c0.2,0.3,0.5,0.5,0.9,0.7
			c0.3,0.2,0.7,0.3,1.2,0.3c0.4,0,0.8-0.1,1.1-0.3c0.4-0.2,0.6-0.5,0.8-0.9h0v0.4c0,0.3,0,0.7-0.1,0.9c-0.1,0.3-0.2,0.5-0.3,0.7
			c-0.2,0.2-0.3,0.4-0.6,0.5c-0.2,0.1-0.5,0.2-0.9,0.2c-0.2,0-0.3,0-0.5-0.1c-0.2,0-0.4-0.1-0.5-0.2c-0.2-0.1-0.3-0.2-0.4-0.3
			c-0.1-0.1-0.2-0.3-0.2-0.5h-1c0,0.3,0.1,0.6,0.3,0.9c0.2,0.2,0.4,0.4,0.6,0.6c0.2,0.1,0.5,0.2,0.8,0.3c0.3,0.1,0.6,0.1,0.9,0.1
			c1,0,1.7-0.3,2.2-0.8C116.9,120.2,117.1,119.5,117.1,118.5z M114.3,118.2c-0.3,0-0.6-0.1-0.8-0.2c-0.2-0.1-0.4-0.3-0.5-0.6
			c-0.1-0.2-0.2-0.5-0.3-0.8c-0.1-0.3-0.1-0.6-0.1-0.8c0-0.3,0-0.6,0.1-0.9c0.1-0.3,0.2-0.5,0.3-0.7c0.2-0.2,0.3-0.4,0.6-0.5
			c0.2-0.1,0.5-0.2,0.8-0.2c0.3,0,0.6,0.1,0.8,0.2c0.2,0.1,0.4,0.3,0.5,0.5c0.1,0.2,0.2,0.4,0.3,0.7c0.1,0.3,0.1,0.5,0.1,0.8
			c0,0.3,0,0.6-0.1,0.9c-0.1,0.3-0.2,0.5-0.3,0.8c-0.1,0.2-0.3,0.4-0.6,0.6C114.9,118.1,114.6,118.2,114.3,118.2z"/>
	</g>
</g>
<path class="st3" d="M12,1h174c6.1,0,11,4.9,11,11v110c0,6.1-4.9,11-11,11H12c-6.1,0-11-4.9-11-11V12C1,5.9,5.9,1,12,1z"/>
<path class="st1" d="M4,154h32c2.2,0,4,1.8,4,4v40c0,2.2-1.8,4-4,4H4c-2.2,0-4-1.8-4-4v-40C0,155.8,1.8,154,4,154z"/>
<path class="st4" d="M8,167h24"/>
<path class="st4" d="M8,179h12"/>
<path class="st5" d="M31,179h1"/>
<path class="st1" d="M49.3,170.1V183H52v-9h0l3.2,9h2.2l3.1-9.1h0v9.1h2.6v-12.9h-4l-2.8,8.8h0l-3-8.8H49.3z M65.3,176.6
	c0-0.6,0.2-1.1,0.4-1.5s0.6-0.7,1-1c0.4-0.2,0.9-0.4,1.4-0.5c0.5-0.1,1-0.2,1.5-0.2c0.5,0,0.9,0,1.4,0.1c0.5,0.1,0.9,0.2,1.3,0.4
	c0.4,0.2,0.7,0.5,1,0.8c0.3,0.3,0.4,0.8,0.4,1.3v4.8c0,0.4,0,0.8,0.1,1.2c0,0.4,0.1,0.7,0.3,0.9h-2.6c0-0.1-0.1-0.3-0.1-0.4
	c0-0.2,0-0.3-0.1-0.5c-0.4,0.4-0.9,0.7-1.4,0.9s-1.1,0.3-1.7,0.3c-0.4,0-0.9-0.1-1.2-0.2c-0.4-0.1-0.7-0.3-1-0.5
	c-0.3-0.2-0.5-0.5-0.7-0.9c-0.2-0.3-0.2-0.8-0.2-1.2c0-0.5,0.1-1,0.3-1.3c0.2-0.3,0.4-0.6,0.7-0.8c0.3-0.2,0.6-0.4,1-0.4
	c0.4-0.1,0.8-0.2,1.2-0.3c0.4-0.1,0.8-0.1,1.1-0.1c0.4,0,0.7-0.1,1-0.2c0.3-0.1,0.5-0.2,0.7-0.3c0.2-0.1,0.2-0.3,0.2-0.6
	c0-0.3,0-0.5-0.1-0.6c-0.1-0.2-0.2-0.3-0.4-0.4c-0.1-0.1-0.3-0.2-0.5-0.2c-0.2,0-0.4-0.1-0.6-0.1c-0.5,0-0.9,0.1-1.2,0.3
	s-0.5,0.6-0.5,1.1H65.3z M71.2,178.4c-0.1,0.1-0.2,0.2-0.4,0.2c-0.2,0-0.3,0.1-0.5,0.1c-0.2,0-0.4,0.1-0.6,0.1s-0.4,0.1-0.6,0.1
	c-0.2,0-0.4,0.1-0.6,0.1c-0.2,0.1-0.3,0.1-0.5,0.3c-0.1,0.1-0.2,0.2-0.3,0.4c-0.1,0.2-0.1,0.4-0.1,0.6c0,0.2,0,0.4,0.1,0.6
	c0.1,0.2,0.2,0.3,0.3,0.4c0.1,0.1,0.3,0.1,0.5,0.2c0.2,0,0.4,0.1,0.6,0.1c0.5,0,0.9-0.1,1.2-0.3s0.5-0.4,0.6-0.6
	c0.1-0.2,0.2-0.5,0.2-0.7c0-0.2,0.1-0.4,0.1-0.6V178.4z M79,173.7v-2.8h-2.6v2.8h-1.5v1.7h1.5v5.5c0,0.5,0.1,0.8,0.2,1.1
	c0.2,0.3,0.4,0.5,0.6,0.7c0.3,0.2,0.6,0.3,0.9,0.3c0.4,0.1,0.7,0.1,1.1,0.1c0.3,0,0.5,0,0.8,0c0.3,0,0.5,0,0.7-0.1v-2
	c-0.1,0-0.2,0-0.4,0.1c-0.1,0-0.3,0-0.4,0c-0.4,0-0.7-0.1-0.9-0.2c-0.1-0.1-0.2-0.4-0.2-0.9v-4.6h1.9v-1.7H79z M82.1,173.7v9.3h2.6
	v-4.2c0-0.4,0-0.8,0.1-1.2s0.2-0.7,0.4-0.9c0.2-0.3,0.5-0.5,0.8-0.6c0.3-0.2,0.7-0.2,1.2-0.2c0.2,0,0.3,0,0.5,0c0.2,0,0.3,0,0.4,0.1
	v-2.4c-0.2-0.1-0.4-0.1-0.6-0.1c-0.3,0-0.6,0-0.9,0.1c-0.3,0.1-0.6,0.2-0.8,0.4c-0.3,0.2-0.5,0.4-0.7,0.6c-0.2,0.2-0.4,0.5-0.5,0.8
	h0v-1.7H82.1z M91.7,172.3v-2.1h-2.6v2.1H91.7z M89.1,173.7v9.3h2.6v-9.3H89.1z M96.1,178.1l-3.3,4.9h2.9l1.9-2.9l1.9,2.9h2.9
	l-3.4-4.9l3.1-4.4h-2.8l-1.6,2.4l-1.6-2.4H93L96.1,178.1z M103.5,180.2v2.8h2.8v-2.8H103.5z M110.6,178.4c0-0.4,0-0.7,0.1-1.1
	c0.1-0.4,0.2-0.7,0.4-1c0.2-0.3,0.4-0.5,0.7-0.7c0.3-0.2,0.6-0.3,1.1-0.3c0.4,0,0.8,0.1,1.1,0.3c0.3,0.2,0.5,0.4,0.7,0.7
	c0.2,0.3,0.3,0.6,0.4,1s0.1,0.7,0.1,1.1c0,0.4,0,0.7-0.1,1.1c-0.1,0.3-0.2,0.7-0.4,1c-0.2,0.3-0.4,0.5-0.7,0.7
	c-0.3,0.2-0.6,0.3-1.1,0.3c-0.4,0-0.8-0.1-1.1-0.3s-0.5-0.4-0.7-0.7c-0.2-0.3-0.3-0.6-0.4-1C110.7,179.1,110.6,178.7,110.6,178.4z
	 M108.1,178.4c0,0.7,0.1,1.4,0.3,2c0.2,0.6,0.6,1.1,1,1.5c0.4,0.4,0.9,0.7,1.5,1s1.2,0.3,2,0.3c0.7,0,1.4-0.1,2-0.3
	c0.6-0.2,1.1-0.6,1.5-1c0.4-0.4,0.7-0.9,1-1.5c0.2-0.6,0.3-1.3,0.3-2s-0.1-1.4-0.3-2c-0.2-0.6-0.6-1.1-1-1.5c-0.4-0.4-0.9-0.8-1.5-1
	c-0.6-0.2-1.2-0.4-2-0.4c-0.7,0-1.4,0.1-2,0.4c-0.6,0.2-1.1,0.6-1.5,1c-0.4,0.4-0.7,0.9-1,1.5C108.2,176.9,108.1,177.6,108.1,178.4z
	 M119.4,173.7v9.3h2.6v-4.2c0-0.4,0-0.8,0.1-1.2s0.2-0.7,0.4-0.9c0.2-0.3,0.5-0.5,0.8-0.6c0.3-0.2,0.7-0.2,1.2-0.2
	c0.2,0,0.3,0,0.5,0c0.2,0,0.3,0,0.4,0.1v-2.4c-0.2-0.1-0.4-0.1-0.6-0.1c-0.3,0-0.6,0-0.9,0.1c-0.3,0.1-0.6,0.2-0.8,0.4
	c-0.3,0.2-0.5,0.4-0.7,0.6c-0.2,0.2-0.4,0.5-0.5,0.8h0v-1.7H119.4z M130.2,180.8c-0.4,0-0.7-0.1-1-0.3c-0.3-0.2-0.5-0.4-0.6-0.6
	c-0.2-0.3-0.3-0.6-0.3-0.9c-0.1-0.3-0.1-0.7-0.1-1c0-0.3,0-0.7,0.1-1c0.1-0.3,0.2-0.6,0.4-0.8c0.2-0.3,0.4-0.4,0.6-0.6
	c0.3-0.1,0.6-0.2,0.9-0.2c0.4,0,0.8,0.1,1,0.2c0.3,0.2,0.5,0.4,0.7,0.6c0.2,0.3,0.3,0.6,0.4,0.9c0.1,0.3,0.1,0.7,0.1,1.1
	c0,0.3,0,0.7-0.1,1c-0.1,0.3-0.2,0.6-0.4,0.8c-0.2,0.2-0.4,0.4-0.7,0.6S130.6,180.8,130.2,180.8z M134.8,182.4v-8.7h-2.4v1.2h0
	c-0.3-0.5-0.7-0.9-1.2-1.2c-0.5-0.2-1-0.3-1.6-0.3c-0.6,0-1.2,0.1-1.7,0.4c-0.5,0.3-0.9,0.6-1.2,1c-0.3,0.4-0.6,0.9-0.8,1.5
	c-0.2,0.6-0.3,1.1-0.3,1.7c0,0.6,0.1,1.2,0.2,1.8c0.2,0.6,0.4,1.1,0.7,1.5c0.3,0.4,0.7,0.8,1.2,1c0.5,0.2,1.1,0.4,1.8,0.4
	c0.6,0,1.1-0.1,1.6-0.3c0.5-0.2,0.9-0.6,1.2-1.1h0v1.2c0,0.7-0.1,1.2-0.5,1.6c-0.3,0.4-0.8,0.6-1.6,0.6c-0.5,0-0.9-0.1-1.2-0.3
	c-0.3-0.2-0.6-0.5-0.7-1h-2.5c0,0.5,0.2,1,0.4,1.3c0.3,0.4,0.6,0.7,1,0.9c0.4,0.2,0.8,0.4,1.3,0.5c0.5,0.1,0.9,0.2,1.4,0.2
	c1.1,0,1.9-0.1,2.6-0.4c0.6-0.3,1.1-0.6,1.5-1.1c0.3-0.4,0.6-0.9,0.6-1.3C134.8,183.2,134.8,182.8,134.8,182.4z"/>
<path class="st6" d="M20,134v20"/>
<g>
	<defs>
		<path id="SVGID_3_" d="M53,210L53,210c6.6,0,12,5.4,12,12l0,0c0,6.6-5.4,12-12,12l0,0c-6.6,0-12-5.4-12-12l0,0
			C41,215.4,46.4,210,53,210z"/>
	</defs>
	<clipPath id="SVGID_4_">
		<use xlink:href="#SVGID_3_"  style="overflow:visible;"/>
	</clipPath>
	<g class="st7">
		<path class="st8" d="M53,210L53,210c6.6,0,12,5.4,12,12l0,0c0,6.6-5.4,12-12,12l0,0c-6.6,0-12-5.4-12-12l0,0
			C41,215.4,46.4,210,53,210z"/>
		<g>
			<defs>
				<path id="SVGID_5_" d="M53,210L53,210c6.6,0,12,5.4,12,12l0,0c0,6.6-5.4,12-12,12l0,0c-6.6,0-12-5.4-12-12l0,0
					C41,215.4,46.4,210,53,210z"/>
			</defs>
			<clipPath id="SVGID_6_">
				<use xlink:href="#SVGID_5_"  style="overflow:visible;"/>
			</clipPath>
			<g class="st9">
				<path class="st1" d="M53,210L53,210c6.6,0,12,5.4,12,12l0,0c0,6.6-5.4,12-12,12l0,0c-6.6,0-12-5.4-12-12l0,0
					C41,215.4,46.4,210,53,210z"/>
				<path class="st8" d="M47,221c0-0.8,0.2-1.6,0.5-2.3c0.3-0.7,0.7-1.4,1.3-1.9c0.6-0.6,1.2-1,1.9-1.3c0.7-0.3,1.5-0.5,2.3-0.5
					s1.6,0.2,2.3,0.5c0.7,0.3,1.4,0.7,1.9,1.3c0.6,0.6,1,1.2,1.3,1.9c0.3,0.7,0.5,1.5,0.5,2.3h-6H47z"/>
				<circle class="st10" cx="53" cy="222" r="11"/>
				<path class="st8" d="M59,226.3V221H47v5.3c0,0.8,0.8,1.2,1.5,0.9l1-0.6c0.3-0.2,0.7-0.2,1,0l2,1.1c0.3,0.2,0.7,0.2,1,0l2-1.1
					c0.3-0.2,0.7-0.2,1,0l1,0.6C58.2,227.5,59,227.1,59,226.3z"/>
				<path class="st11" d="M50,219v2"/>
				<path class="st11" d="M53,219v2"/>
			</g>
		</g>
	</g>
</g>
<path class="st12" d="M77.8,223l1.7-4.7h0l1.6,4.7H77.8z M78.1,215.1L73.3,228h2.8l1-2.9h4.8l1,2.9h2.9L81,215.1H78.1z M86.7,215.1
	V228h2.6v-12.9H86.7z M93.9,217.3v-2.1h-2.6v2.1H93.9z M91.4,218.7v9.3h2.6v-9.3H91.4z M102.3,222h2.5c0-0.6-0.2-1.1-0.4-1.5
	c-0.3-0.4-0.6-0.8-1-1.1c-0.4-0.3-0.9-0.5-1.4-0.7c-0.5-0.1-1-0.2-1.6-0.2c-0.8,0-1.4,0.1-2,0.4c-0.6,0.3-1.1,0.6-1.5,1.1
	c-0.4,0.4-0.7,1-0.9,1.6c-0.2,0.6-0.3,1.3-0.3,2c0,0.7,0.1,1.3,0.3,1.9c0.2,0.6,0.5,1.1,1,1.5c0.4,0.4,0.9,0.8,1.5,1
	c0.6,0.2,1.2,0.3,1.9,0.3c1.2,0,2.2-0.3,3-1c0.8-0.6,1.3-1.6,1.4-2.8h-2.5c-0.1,0.6-0.3,1-0.6,1.4c-0.3,0.3-0.8,0.5-1.4,0.5
	c-0.4,0-0.7-0.1-1-0.3s-0.5-0.4-0.7-0.7c-0.2-0.3-0.3-0.6-0.3-1c-0.1-0.3-0.1-0.7-0.1-1c0-0.3,0-0.7,0.1-1c0.1-0.4,0.2-0.7,0.4-1
	c0.2-0.3,0.4-0.5,0.7-0.7c0.3-0.2,0.6-0.3,1-0.3C101.5,220.4,102.1,220.9,102.3,222z M112.5,222.3h-4.2c0-0.2,0-0.4,0.1-0.6
	c0.1-0.2,0.2-0.4,0.3-0.6c0.2-0.2,0.4-0.4,0.6-0.5c0.3-0.1,0.6-0.2,1-0.2c0.6,0,1.1,0.2,1.4,0.5
	C112.2,221.2,112.4,221.7,112.5,222.3z M108.4,224h6.7c0-0.7,0-1.4-0.2-2.1c-0.2-0.7-0.4-1.2-0.8-1.8c-0.4-0.5-0.9-0.9-1.4-1.2
	c-0.6-0.3-1.3-0.5-2.1-0.5c-0.7,0-1.4,0.1-1.9,0.4c-0.6,0.3-1.1,0.6-1.5,1c-0.4,0.4-0.7,0.9-1,1.5c-0.2,0.6-0.3,1.2-0.3,1.9
	c0,0.7,0.1,1.4,0.3,2c0.2,0.6,0.5,1.1,1,1.5c0.4,0.4,0.9,0.8,1.5,1c0.6,0.2,1.2,0.3,2,0.3c1.1,0,2-0.2,2.7-0.7
	c0.7-0.5,1.3-1.3,1.7-2.4h-2.2c-0.1,0.3-0.3,0.6-0.7,0.8c-0.4,0.3-0.8,0.4-1.3,0.4c-0.7,0-1.3-0.2-1.7-0.6
	C108.6,225.4,108.4,224.8,108.4,224z"/>
<path class="st13" d="M20,190v32h20"/>
<g>
	<defs>
		<path id="SVGID_7_" d="M53,242L53,242c6.6,0,12,5.4,12,12l0,0c0,6.6-5.4,12-12,12l0,0c-6.6,0-12-5.4-12-12l0,0
			C41,247.4,46.4,242,53,242z"/>
	</defs>
	<clipPath id="SVGID_8_">
		<use xlink:href="#SVGID_7_"  style="overflow:visible;"/>
	</clipPath>
	<g class="st14">
		<path class="st1" d="M53,242L53,242c6.6,0,12,5.4,12,12l0,0c0,6.6-5.4,12-12,12l0,0c-6.6,0-12-5.4-12-12l0,0
			C41,247.4,46.4,242,53,242z"/>
		<g>
			<defs>
				<path id="SVGID_9_" d="M53,242L53,242c6.6,0,12,5.4,12,12l0,0c0,6.6-5.4,12-12,12l0,0c-6.6,0-12-5.4-12-12l0,0
					C41,247.4,46.4,242,53,242z"/>
			</defs>
			<clipPath id="SVGID_10_">
				<use xlink:href="#SVGID_9_"  style="overflow:visible;"/>
			</clipPath>
			<g class="st15">
				<path class="st1" d="M53,242L53,242c6.6,0,12,5.4,12,12l0,0c0,6.6-5.4,12-12,12l0,0c-6.6,0-12-5.4-12-12l0,0
					C41,247.4,46.4,242,53,242z"/>
				<circle class="st1" cx="53" cy="250" r="4"/>
				<circle class="st1" cx="53" cy="263" r="8"/>
				<circle class="st3" cx="53" cy="254" r="11"/>
			</g>
		</g>
	</g>
</g>
<path class="st1" d="M77.2,252.4v-3h2.6c0.3,0,0.5,0,0.7,0.1c0.2,0,0.4,0.1,0.6,0.2s0.3,0.3,0.4,0.4c0.1,0.2,0.2,0.4,0.2,0.7
	c0,0.5-0.2,0.9-0.5,1.2c-0.3,0.2-0.7,0.4-1.2,0.4H77.2z M74.4,247.1V260h6.2c0.6,0,1.1-0.1,1.7-0.2c0.6-0.1,1-0.4,1.5-0.7
	c0.4-0.3,0.8-0.7,1-1.2c0.3-0.5,0.4-1,0.4-1.7c0-0.8-0.2-1.5-0.6-2.1c-0.4-0.6-1-1-1.8-1.2c0.6-0.3,1-0.6,1.3-1.1
	c0.3-0.4,0.4-1,0.4-1.6c0-0.6-0.1-1.1-0.3-1.5c-0.2-0.4-0.5-0.7-0.8-1c-0.4-0.3-0.8-0.4-1.3-0.5s-1.1-0.2-1.7-0.2H74.4z M77.2,257.8
	v-3.5h3.1c0.6,0,1.1,0.1,1.5,0.4c0.4,0.3,0.6,0.7,0.6,1.4c0,0.3-0.1,0.6-0.2,0.8c-0.1,0.2-0.3,0.4-0.5,0.5c-0.2,0.1-0.4,0.2-0.7,0.3
	c-0.3,0-0.5,0.1-0.8,0.1H77.2z M89.1,255.4c0-0.4,0-0.7,0.1-1.1s0.2-0.7,0.4-1c0.2-0.3,0.4-0.5,0.7-0.7c0.3-0.2,0.6-0.3,1.1-0.3
	s0.8,0.1,1.1,0.3c0.3,0.2,0.5,0.4,0.7,0.7c0.2,0.3,0.3,0.6,0.4,1s0.1,0.7,0.1,1.1c0,0.4,0,0.7-0.1,1.1c-0.1,0.3-0.2,0.7-0.4,1
	c-0.2,0.3-0.4,0.5-0.7,0.7c-0.3,0.2-0.6,0.3-1.1,0.3s-0.8-0.1-1.1-0.3c-0.3-0.2-0.5-0.4-0.7-0.7c-0.2-0.3-0.3-0.6-0.4-1
	C89.1,256.1,89.1,255.7,89.1,255.4z M86.5,255.4c0,0.7,0.1,1.4,0.3,2c0.2,0.6,0.6,1.1,1,1.5c0.4,0.4,0.9,0.7,1.5,1
	c0.6,0.2,1.2,0.3,2,0.3c0.7,0,1.4-0.1,2-0.3c0.6-0.2,1.1-0.6,1.5-1c0.4-0.4,0.7-0.9,1-1.5c0.2-0.6,0.3-1.3,0.3-2s-0.1-1.4-0.3-2
	c-0.2-0.6-0.6-1.1-1-1.5c-0.4-0.4-0.9-0.8-1.5-1c-0.6-0.2-1.2-0.4-2-0.4c-0.7,0-1.4,0.1-2,0.4c-0.6,0.2-1.1,0.6-1.5,1
	c-0.4,0.4-0.7,0.9-1,1.5C86.6,253.9,86.5,254.6,86.5,255.4z M104.6,255.4c0,0.4,0,0.8-0.1,1.1c-0.1,0.4-0.2,0.7-0.4,1
	s-0.4,0.5-0.7,0.7c-0.3,0.2-0.6,0.2-1,0.2c-0.4,0-0.7-0.1-1-0.2c-0.3-0.2-0.5-0.4-0.7-0.7s-0.3-0.6-0.4-1c-0.1-0.4-0.1-0.7-0.1-1.1
	c0-0.4,0-0.8,0.1-1.1s0.2-0.7,0.4-1s0.4-0.5,0.7-0.6c0.3-0.2,0.6-0.3,1-0.3c0.4,0,0.7,0.1,1,0.3c0.3,0.2,0.5,0.4,0.7,0.6
	s0.3,0.6,0.4,1S104.6,255,104.6,255.4z M97.8,247.1V260h2.4v-1.2h0c0.3,0.5,0.7,0.9,1.2,1.1s1.2,0.3,1.8,0.3c0.5,0,0.9-0.1,1.4-0.3
	c0.5-0.2,0.9-0.5,1.2-0.9c0.4-0.4,0.7-0.9,0.9-1.5c0.2-0.6,0.3-1.4,0.3-2.2s-0.1-1.6-0.3-2.2c-0.2-0.6-0.5-1.1-0.9-1.5
	c-0.4-0.4-0.8-0.7-1.2-0.9s-0.9-0.3-1.4-0.3c-0.6,0-1.1,0.1-1.7,0.3c-0.5,0.2-0.9,0.6-1.3,1h0v-4.7H97.8z"/>
<path class="st16" d="M20,222v32h20"/>
<g>
	<defs>
		<path id="SVGID_11_" d="M53,274L53,274c6.6,0,12,5.4,12,12l0,0c0,6.6-5.4,12-12,12l0,0c-6.6,0-12-5.4-12-12l0,0
			C41,279.4,46.4,274,53,274z"/>
	</defs>
	<clipPath id="SVGID_12_">
		<use xlink:href="#SVGID_11_"  style="overflow:visible;"/>
	</clipPath>
	<g class="st17">
		<path class="st8" d="M53,274L53,274c6.6,0,12,5.4,12,12l0,0c0,6.6-5.4,12-12,12l0,0c-6.6,0-12-5.4-12-12l0,0
			C41,279.4,46.4,274,53,274z"/>
		<g>
			<defs>
				<path id="SVGID_13_" d="M53,274L53,274c6.6,0,12,5.4,12,12l0,0c0,6.6-5.4,12-12,12l0,0c-6.6,0-12-5.4-12-12l0,0
					C41,279.4,46.4,274,53,274z"/>
			</defs>
			<clipPath id="SVGID_14_">
				<use xlink:href="#SVGID_13_"  style="overflow:visible;"/>
			</clipPath>
			<g class="st18">
				<path class="st1" d="M53,274L53,274c6.6,0,12,5.4,12,12l0,0c0,6.6-5.4,12-12,12l0,0c-6.6,0-12-5.4-12-12l0,0
					C41,279.4,46.4,274,53,274z"/>
				<path class="st8" d="M47,285c0-0.8,0.2-1.6,0.5-2.3c0.3-0.7,0.7-1.4,1.3-1.9c0.6-0.6,1.2-1,1.9-1.3c0.7-0.3,1.5-0.5,2.3-0.5
					s1.6,0.2,2.3,0.5c0.7,0.3,1.4,0.7,1.9,1.3c0.6,0.6,1,1.2,1.3,1.9c0.3,0.7,0.5,1.5,0.5,2.3h-6H47z"/>
				<circle class="st10" cx="53" cy="286" r="11"/>
				<path class="st8" d="M59,290.3V285H47v5.3c0,0.8,0.8,1.2,1.5,0.9l1-0.6c0.3-0.2,0.7-0.2,1,0l2,1.1c0.3,0.2,0.7,0.2,1,0l2-1.1
					c0.3-0.2,0.7-0.2,1,0l1,0.6C58.2,291.5,59,291.1,59,290.3z"/>
				<path class="st11" d="M50,283v2"/>
				<path class="st11" d="M53,283v2"/>
			</g>
		</g>
	</g>
</g>
<path class="st12" d="M83.3,283.5H86c-0.1-0.7-0.3-1.4-0.6-2c-0.3-0.6-0.7-1.1-1.2-1.4c-0.5-0.4-1.1-0.7-1.7-0.9
	c-0.6-0.2-1.3-0.3-2-0.3c-1,0-1.9,0.2-2.7,0.5c-0.8,0.3-1.4,0.8-2,1.4s-1,1.3-1.2,2.2c-0.3,0.8-0.4,1.7-0.4,2.7
	c0,0.9,0.1,1.8,0.4,2.6c0.3,0.8,0.7,1.5,1.2,2.1s1.2,1.1,2,1.4c0.8,0.3,1.7,0.5,2.7,0.5c0.8,0,1.5-0.1,2.2-0.4
	c0.7-0.2,1.2-0.6,1.7-1c0.5-0.5,0.9-1,1.2-1.7c0.3-0.6,0.5-1.4,0.6-2.2h-2.7c-0.1,0.9-0.4,1.6-0.9,2.1c-0.5,0.5-1.2,0.8-2,0.8
	c-0.6,0-1.2-0.1-1.6-0.4c-0.4-0.3-0.8-0.6-1.1-1c-0.3-0.4-0.5-0.9-0.6-1.4c-0.1-0.5-0.2-1-0.2-1.6c0-0.6,0.1-1.1,0.2-1.6
	c0.1-0.5,0.3-1,0.6-1.4c0.3-0.4,0.6-0.8,1.1-1c0.4-0.3,1-0.4,1.6-0.4c0.3,0,0.7,0.1,1,0.2c0.3,0.1,0.6,0.3,0.9,0.5
	c0.3,0.2,0.5,0.4,0.6,0.7C83.2,282.9,83.3,283.1,83.3,283.5z M87.7,285.6c0-0.6,0.2-1.1,0.4-1.5c0.3-0.4,0.6-0.7,1-1
	c0.4-0.2,0.9-0.4,1.4-0.5c0.5-0.1,1-0.2,1.5-0.2c0.5,0,0.9,0,1.4,0.1c0.5,0.1,0.9,0.2,1.3,0.4c0.4,0.2,0.7,0.5,1,0.8
	c0.3,0.3,0.4,0.8,0.4,1.4v4.8c0,0.4,0,0.8,0.1,1.2c0,0.4,0.1,0.7,0.3,0.9h-2.6c0-0.1-0.1-0.3-0.1-0.4c0-0.2,0-0.3-0.1-0.5
	c-0.4,0.4-0.9,0.7-1.4,0.9c-0.6,0.2-1.1,0.3-1.7,0.3c-0.4,0-0.9-0.1-1.2-0.2c-0.4-0.1-0.7-0.3-1-0.5s-0.5-0.5-0.7-0.9
	c-0.2-0.3-0.2-0.8-0.2-1.2c0-0.5,0.1-1,0.3-1.3c0.2-0.3,0.4-0.6,0.7-0.8c0.3-0.2,0.6-0.4,1-0.5c0.4-0.1,0.8-0.2,1.2-0.3
	c0.4-0.1,0.8-0.1,1.1-0.1s0.7-0.1,1-0.2c0.3-0.1,0.5-0.2,0.7-0.3c0.2-0.1,0.2-0.3,0.2-0.6c0-0.3,0-0.5-0.1-0.6
	c-0.1-0.2-0.2-0.3-0.4-0.4c-0.1-0.1-0.3-0.2-0.5-0.2c-0.2,0-0.4-0.1-0.6-0.1c-0.5,0-0.9,0.1-1.2,0.3c-0.3,0.2-0.5,0.6-0.5,1.1H87.7z
	 M93.6,287.4c-0.1,0.1-0.2,0.2-0.4,0.2c-0.2,0-0.3,0.1-0.5,0.1c-0.2,0-0.4,0.1-0.6,0.1c-0.2,0-0.4,0.1-0.6,0.1
	c-0.2,0-0.4,0.1-0.6,0.1c-0.2,0.1-0.3,0.1-0.5,0.3c-0.1,0.1-0.2,0.2-0.3,0.4c-0.1,0.2-0.1,0.4-0.1,0.6c0,0.2,0,0.4,0.1,0.6
	s0.2,0.3,0.3,0.4c0.1,0.1,0.3,0.1,0.5,0.2c0.2,0,0.4,0.1,0.6,0.1c0.5,0,0.9-0.1,1.2-0.3s0.5-0.4,0.6-0.6c0.1-0.2,0.2-0.5,0.2-0.7
	c0-0.2,0.1-0.4,0.1-0.6V287.4z M98.1,282.7v9.3h2.6v-4.2c0-0.4,0-0.8,0.1-1.2c0.1-0.4,0.2-0.7,0.4-0.9c0.2-0.3,0.5-0.5,0.8-0.6
	c0.3-0.2,0.7-0.2,1.2-0.2c0.2,0,0.3,0,0.5,0c0.2,0,0.3,0,0.4,0.1v-2.4c-0.2-0.1-0.4-0.1-0.6-0.1c-0.3,0-0.6,0-0.9,0.1
	c-0.3,0.1-0.6,0.2-0.8,0.4c-0.3,0.2-0.5,0.4-0.7,0.6c-0.2,0.2-0.4,0.5-0.5,0.8h0v-1.7H98.1z M107.1,287.4c0-0.4,0-0.7,0.1-1.1
	c0.1-0.4,0.2-0.7,0.4-1c0.2-0.3,0.4-0.5,0.7-0.7c0.3-0.2,0.6-0.3,1.1-0.3s0.8,0.1,1.1,0.3c0.3,0.2,0.5,0.4,0.7,0.7
	c0.2,0.3,0.3,0.6,0.4,1c0.1,0.4,0.1,0.7,0.1,1.1c0,0.4,0,0.7-0.1,1.1c-0.1,0.3-0.2,0.7-0.4,1c-0.2,0.3-0.4,0.5-0.7,0.7
	c-0.3,0.2-0.6,0.3-1.1,0.3s-0.8-0.1-1.1-0.3s-0.5-0.4-0.7-0.7c-0.2-0.3-0.3-0.6-0.4-1C107.1,288.1,107.1,287.7,107.1,287.4z
	 M104.5,287.4c0,0.7,0.1,1.4,0.3,2c0.2,0.6,0.6,1.1,1,1.5c0.4,0.4,0.9,0.7,1.5,1c0.6,0.2,1.2,0.3,2,0.3s1.4-0.1,2-0.3
	c0.6-0.2,1.1-0.6,1.5-1c0.4-0.4,0.7-0.9,1-1.5c0.2-0.6,0.3-1.3,0.3-2c0-0.7-0.1-1.4-0.3-2c-0.2-0.6-0.6-1.1-1-1.5
	c-0.4-0.4-0.9-0.8-1.5-1c-0.6-0.2-1.2-0.4-2-0.4s-1.4,0.1-2,0.4c-0.6,0.2-1.1,0.6-1.5,1c-0.4,0.4-0.7,0.9-1,1.5
	C104.7,285.9,104.5,286.6,104.5,287.4z M115.9,279.1V292h2.6v-12.9H115.9z"/>
<path class="st13" d="M20,254v32h20"/>
<path class="st6" d="M218,63h-20"/>
<path class="st6" d="M287,63h-20"/>
<g>
	<defs>
		<path id="SVGID_15_" d="M299,0h174c6.6,0,12,5.4,12,12v110c0,6.6-5.4,12-12,12H299c-6.6,0-12-5.4-12-12V12C287,5.4,292.4,0,299,0z
			"/>
	</defs>
	<clipPath id="SVGID_16_">
		<use xlink:href="#SVGID_15_"  style="overflow:visible;"/>
	</clipPath>
	<g class="st19">
		<path class="st1" d="M299,0h174c6.6,0,12,5.4,12,12v110c0,6.6-5.4,12-12,12H299c-6.6,0-12-5.4-12-12V12C287,5.4,292.4,0,299,0z"/>
		<rect x="287" class="st2" width="198" height="38"/>
		<path d="M308,24l2.3-8.6h-1.8l-1.4,5.9h0l-1.5-5.9h-1.8l-1.5,5.8h0l-1.4-5.8h-1.9l2.3,8.6h1.9l1.4-5.8h0l1.5,5.8H308z M310.5,19.7
			c0-0.4,0.1-0.7,0.3-1c0.2-0.3,0.4-0.5,0.7-0.6s0.6-0.3,0.9-0.3c0.3-0.1,0.7-0.1,1-0.1c0.3,0,0.6,0,0.9,0.1c0.3,0,0.6,0.1,0.9,0.3
			c0.3,0.1,0.5,0.3,0.6,0.5c0.2,0.2,0.3,0.5,0.3,0.9v3.2c0,0.3,0,0.5,0,0.8c0,0.3,0.1,0.4,0.2,0.6h-1.7c0-0.1-0.1-0.2-0.1-0.3
			c0-0.1,0-0.2,0-0.3c-0.3,0.3-0.6,0.5-1,0.6c-0.4,0.1-0.7,0.2-1.1,0.2c-0.3,0-0.6,0-0.8-0.1c-0.3-0.1-0.5-0.2-0.7-0.3
			c-0.2-0.2-0.3-0.3-0.5-0.6c-0.1-0.2-0.2-0.5-0.2-0.8c0-0.4,0.1-0.6,0.2-0.9c0.1-0.2,0.3-0.4,0.5-0.6c0.2-0.1,0.4-0.2,0.7-0.3
			c0.3-0.1,0.5-0.1,0.8-0.2c0.3,0,0.5-0.1,0.8-0.1c0.2,0,0.5-0.1,0.7-0.1c0.2,0,0.3-0.1,0.5-0.2c0.1-0.1,0.2-0.2,0.2-0.4
			c0-0.2,0-0.3-0.1-0.4c-0.1-0.1-0.1-0.2-0.2-0.3c-0.1-0.1-0.2-0.1-0.3-0.1c-0.1,0-0.3,0-0.4,0c-0.3,0-0.6,0.1-0.8,0.2
			c-0.2,0.1-0.3,0.4-0.3,0.7H310.5z M314.4,21c-0.1,0.1-0.2,0.1-0.3,0.2c-0.1,0-0.2,0.1-0.3,0.1c-0.1,0-0.2,0-0.4,0.1
			c-0.1,0-0.3,0-0.4,0.1c-0.1,0-0.3,0.1-0.4,0.1c-0.1,0-0.2,0.1-0.3,0.2c-0.1,0.1-0.2,0.1-0.2,0.3s-0.1,0.2-0.1,0.4
			c0,0.2,0,0.3,0.1,0.4s0.1,0.2,0.2,0.3c0.1,0.1,0.2,0.1,0.3,0.1s0.3,0,0.4,0c0.3,0,0.6-0.1,0.8-0.2c0.2-0.1,0.3-0.2,0.4-0.4
			c0.1-0.2,0.1-0.3,0.2-0.5c0-0.2,0-0.3,0-0.4V21z M319.6,17.8v-1.9h-1.7v1.9h-1v1.1h1v3.7c0,0.3,0.1,0.6,0.2,0.8
			c0.1,0.2,0.2,0.3,0.4,0.4c0.2,0.1,0.4,0.2,0.6,0.2c0.2,0,0.5,0.1,0.8,0.1c0.2,0,0.3,0,0.5,0s0.3,0,0.5,0v-1.3c-0.1,0-0.2,0-0.3,0
			c-0.1,0-0.2,0-0.3,0c-0.3,0-0.5,0-0.6-0.1c-0.1-0.1-0.1-0.3-0.1-0.6v-3.1h1.2v-1.1H319.6z M325.9,20.2h-2.8c0-0.1,0-0.3,0.1-0.4
			c0-0.2,0.1-0.3,0.2-0.4c0.1-0.1,0.3-0.2,0.4-0.3c0.2-0.1,0.4-0.1,0.7-0.1c0.4,0,0.7,0.1,0.9,0.3C325.6,19.5,325.8,19.8,325.9,20.2
			z M323.1,21.3h4.5c0-0.5,0-0.9-0.1-1.4c-0.1-0.4-0.3-0.8-0.6-1.2c-0.2-0.3-0.6-0.6-1-0.8c-0.4-0.2-0.9-0.3-1.4-0.3
			c-0.5,0-0.9,0.1-1.3,0.3c-0.4,0.2-0.7,0.4-1,0.7c-0.3,0.3-0.5,0.6-0.6,1s-0.2,0.8-0.2,1.3c0,0.5,0.1,0.9,0.2,1.3
			c0.2,0.4,0.4,0.7,0.6,1s0.6,0.5,1,0.7c0.4,0.2,0.8,0.2,1.3,0.2c0.7,0,1.3-0.2,1.8-0.5s0.9-0.9,1.1-1.6H326
			c-0.1,0.2-0.2,0.4-0.5,0.6c-0.2,0.2-0.5,0.3-0.9,0.3c-0.5,0-0.8-0.1-1.1-0.4C323.3,22.3,323.1,21.9,323.1,21.3z M328.6,17.8V24
			h1.7v-2.8c0-0.3,0-0.5,0.1-0.8s0.1-0.4,0.3-0.6c0.1-0.2,0.3-0.3,0.5-0.4s0.5-0.2,0.8-0.2c0.1,0,0.2,0,0.3,0c0.1,0,0.2,0,0.3,0
			v-1.6c-0.1,0-0.3-0.1-0.4-0.1c-0.2,0-0.4,0-0.6,0.1c-0.2,0.1-0.4,0.2-0.6,0.3c-0.2,0.1-0.3,0.3-0.5,0.4c-0.1,0.2-0.2,0.3-0.3,0.5
			h0v-1.2H328.6z M337.3,20h1.7c0-0.4-0.1-0.7-0.3-1c-0.2-0.3-0.4-0.5-0.7-0.7c-0.3-0.2-0.6-0.3-0.9-0.4c-0.3-0.1-0.7-0.1-1.1-0.1
			c-0.5,0-1,0.1-1.3,0.3c-0.4,0.2-0.7,0.4-1,0.7c-0.3,0.3-0.5,0.7-0.6,1.1c-0.1,0.4-0.2,0.9-0.2,1.3c0,0.5,0.1,0.9,0.2,1.3
			c0.2,0.4,0.4,0.7,0.6,1c0.3,0.3,0.6,0.5,1,0.7c0.4,0.2,0.8,0.2,1.3,0.2c0.8,0,1.5-0.2,2-0.6c0.5-0.4,0.8-1.1,1-1.9h-1.6
			c-0.1,0.4-0.2,0.7-0.4,0.9c-0.2,0.2-0.5,0.3-0.9,0.3c-0.3,0-0.5-0.1-0.7-0.2c-0.2-0.1-0.3-0.3-0.4-0.5c-0.1-0.2-0.2-0.4-0.2-0.6
			s-0.1-0.5-0.1-0.7c0-0.2,0-0.5,0.1-0.7c0-0.2,0.1-0.5,0.2-0.6c0.1-0.2,0.3-0.4,0.5-0.5c0.2-0.1,0.4-0.2,0.7-0.2
			C336.7,18.9,337.1,19.3,337.3,20z M341.4,20.9c0-0.2,0-0.5,0.1-0.7c0-0.2,0.1-0.5,0.2-0.6c0.1-0.2,0.3-0.3,0.5-0.4
			c0.2-0.1,0.4-0.2,0.7-0.2s0.5,0.1,0.7,0.2c0.2,0.1,0.4,0.3,0.5,0.4c0.1,0.2,0.2,0.4,0.3,0.6c0,0.2,0.1,0.5,0.1,0.7
			c0,0.2,0,0.5-0.1,0.7c0,0.2-0.1,0.4-0.3,0.6c-0.1,0.2-0.3,0.3-0.5,0.4c-0.2,0.1-0.4,0.2-0.7,0.2s-0.5-0.1-0.7-0.2
			c-0.2-0.1-0.3-0.3-0.5-0.4c-0.1-0.2-0.2-0.4-0.2-0.6C341.5,21.4,341.4,21.2,341.4,20.9z M339.7,20.9c0,0.5,0.1,0.9,0.2,1.3
			c0.2,0.4,0.4,0.7,0.6,1c0.3,0.3,0.6,0.5,1,0.6s0.8,0.2,1.3,0.2s0.9-0.1,1.3-0.2c0.4-0.2,0.7-0.4,1-0.6c0.3-0.3,0.5-0.6,0.6-1
			c0.2-0.4,0.2-0.8,0.2-1.3c0-0.5-0.1-0.9-0.2-1.3c-0.2-0.4-0.4-0.8-0.6-1c-0.3-0.3-0.6-0.5-1-0.7c-0.4-0.2-0.8-0.2-1.3-0.2
			s-0.9,0.1-1.3,0.2c-0.4,0.2-0.7,0.4-1,0.7c-0.3,0.3-0.5,0.6-0.6,1C339.8,20,339.7,20.4,339.7,20.9z M348.8,20.9
			c0-0.2,0-0.5,0.1-0.7c0-0.2,0.1-0.5,0.2-0.6c0.1-0.2,0.3-0.3,0.5-0.4c0.2-0.1,0.4-0.2,0.7-0.2s0.5,0.1,0.7,0.2
			c0.2,0.1,0.4,0.3,0.5,0.4c0.1,0.2,0.2,0.4,0.3,0.6c0,0.2,0.1,0.5,0.1,0.7c0,0.2,0,0.5-0.1,0.7c0,0.2-0.1,0.4-0.3,0.6
			c-0.1,0.2-0.3,0.3-0.5,0.4c-0.2,0.1-0.4,0.2-0.7,0.2s-0.5-0.1-0.7-0.2c-0.2-0.1-0.3-0.3-0.5-0.4c-0.1-0.2-0.2-0.4-0.2-0.6
			C348.8,21.4,348.8,21.2,348.8,20.9z M347.1,20.9c0,0.5,0.1,0.9,0.2,1.3c0.2,0.4,0.4,0.7,0.6,1c0.3,0.3,0.6,0.5,1,0.6
			s0.8,0.2,1.3,0.2s0.9-0.1,1.3-0.2c0.4-0.2,0.7-0.4,1-0.6c0.3-0.3,0.5-0.6,0.6-1c0.2-0.4,0.2-0.8,0.2-1.3c0-0.5-0.1-0.9-0.2-1.3
			c-0.2-0.4-0.4-0.8-0.6-1c-0.3-0.3-0.6-0.5-1-0.7c-0.4-0.2-0.8-0.2-1.3-0.2s-0.9,0.1-1.3,0.2c-0.4,0.2-0.7,0.4-1,0.7
			c-0.3,0.3-0.5,0.6-0.6,1C347.1,20,347.1,20.4,347.1,20.9z M354.6,15.4V24h1.7v-8.6H354.6z M361.9,20.2h-2.8c0-0.1,0-0.3,0.1-0.4
			c0-0.2,0.1-0.3,0.2-0.4c0.1-0.1,0.3-0.2,0.4-0.3c0.2-0.1,0.4-0.1,0.7-0.1c0.4,0,0.7,0.1,0.9,0.3C361.6,19.5,361.8,19.8,361.9,20.2
			z M359.1,21.3h4.5c0-0.5,0-0.9-0.1-1.4c-0.1-0.4-0.3-0.8-0.6-1.2c-0.2-0.3-0.6-0.6-1-0.8c-0.4-0.2-0.9-0.3-1.4-0.3
			c-0.5,0-0.9,0.1-1.3,0.3c-0.4,0.2-0.7,0.4-1,0.7c-0.3,0.3-0.5,0.6-0.6,1s-0.2,0.8-0.2,1.3c0,0.5,0.1,0.9,0.2,1.3
			c0.2,0.4,0.4,0.7,0.6,1s0.6,0.5,1,0.7c0.4,0.2,0.8,0.2,1.3,0.2c0.7,0,1.3-0.2,1.8-0.5s0.9-0.9,1.1-1.6H362
			c-0.1,0.2-0.2,0.4-0.5,0.6c-0.2,0.2-0.5,0.3-0.9,0.3c-0.5,0-0.8-0.1-1.1-0.4C359.3,22.3,359.1,21.9,359.1,21.3z M364.6,17.8V24
			h1.7v-2.8c0-0.3,0-0.5,0.1-0.8s0.1-0.4,0.3-0.6c0.1-0.2,0.3-0.3,0.5-0.4s0.5-0.2,0.8-0.2c0.1,0,0.2,0,0.3,0c0.1,0,0.2,0,0.3,0
			v-1.6c-0.1,0-0.3-0.1-0.4-0.1c-0.2,0-0.4,0-0.6,0.1c-0.2,0.1-0.4,0.2-0.6,0.3c-0.2,0.1-0.3,0.3-0.5,0.4c-0.1,0.2-0.2,0.3-0.3,0.5
			h0v-1.2H364.6z M372.6,14.6v12h1.3v-12H372.6z M380.1,21.2h-1.8c0,0.5,0.1,1,0.3,1.4c0.2,0.4,0.5,0.7,0.8,0.9
			c0.3,0.2,0.7,0.4,1.2,0.5c0.4,0.1,0.9,0.2,1.4,0.2c0.6,0,1.1-0.1,1.5-0.2c0.4-0.1,0.8-0.3,1.1-0.6c0.3-0.2,0.5-0.5,0.7-0.9
			c0.2-0.3,0.2-0.7,0.2-1.1c0-0.5-0.1-0.9-0.3-1.2c-0.2-0.3-0.4-0.6-0.7-0.7s-0.6-0.3-0.9-0.4c-0.3-0.1-0.5-0.1-0.7-0.2
			c-0.5-0.1-1-0.2-1.3-0.3c-0.3-0.1-0.6-0.2-0.8-0.3c-0.2-0.1-0.3-0.2-0.4-0.3s-0.1-0.2-0.1-0.4c0-0.2,0-0.3,0.1-0.5
			c0.1-0.1,0.2-0.2,0.3-0.3c0.1-0.1,0.3-0.1,0.4-0.2c0.2,0,0.3,0,0.5,0c0.2,0,0.4,0,0.6,0.1c0.2,0,0.4,0.1,0.5,0.2
			c0.2,0.1,0.3,0.2,0.4,0.4c0.1,0.2,0.2,0.4,0.2,0.6h1.8c0-0.5-0.1-0.9-0.3-1.3c-0.2-0.4-0.4-0.6-0.8-0.9c-0.3-0.2-0.7-0.4-1.1-0.5
			c-0.4-0.1-0.8-0.2-1.3-0.2c-0.4,0-0.8,0.1-1.2,0.2s-0.7,0.3-1,0.5c-0.3,0.2-0.6,0.5-0.7,0.8c-0.2,0.3-0.3,0.7-0.3,1.1
			c0,0.4,0.1,0.7,0.2,1c0.2,0.3,0.3,0.5,0.6,0.7c0.2,0.2,0.5,0.3,0.8,0.5c0.3,0.1,0.6,0.2,0.9,0.3c0.3,0.1,0.6,0.2,0.9,0.2
			c0.3,0.1,0.6,0.2,0.8,0.3c0.2,0.1,0.4,0.2,0.6,0.4c0.2,0.1,0.2,0.3,0.2,0.6c0,0.2-0.1,0.4-0.2,0.5c-0.1,0.1-0.3,0.2-0.4,0.3
			s-0.3,0.1-0.5,0.2c-0.2,0-0.4,0-0.5,0c-0.2,0-0.5,0-0.7-0.1c-0.2-0.1-0.4-0.2-0.6-0.3c-0.2-0.1-0.3-0.3-0.4-0.5
			C380.1,21.7,380.1,21.4,380.1,21.2z M386.4,15.4V24h1.7v-8.6H386.4z M389.4,19.7c0-0.4,0.1-0.7,0.3-1c0.2-0.3,0.4-0.5,0.7-0.6
			c0.3-0.2,0.6-0.3,0.9-0.3c0.3-0.1,0.7-0.1,1-0.1c0.3,0,0.6,0,0.9,0.1c0.3,0,0.6,0.1,0.9,0.3c0.3,0.1,0.5,0.3,0.6,0.5
			c0.2,0.2,0.3,0.5,0.3,0.9v3.2c0,0.3,0,0.5,0,0.8c0,0.3,0.1,0.4,0.2,0.6h-1.7c0-0.1-0.1-0.2-0.1-0.3c0-0.1,0-0.2,0-0.3
			c-0.3,0.3-0.6,0.5-1,0.6c-0.4,0.1-0.7,0.2-1.1,0.2c-0.3,0-0.6,0-0.8-0.1c-0.3-0.1-0.5-0.2-0.7-0.3c-0.2-0.2-0.3-0.3-0.5-0.6
			c-0.1-0.2-0.2-0.5-0.2-0.8c0-0.4,0.1-0.6,0.2-0.9c0.1-0.2,0.3-0.4,0.5-0.6c0.2-0.1,0.4-0.2,0.7-0.3c0.3-0.1,0.5-0.1,0.8-0.2
			c0.3,0,0.5-0.1,0.8-0.1c0.2,0,0.5-0.1,0.7-0.1c0.2,0,0.3-0.1,0.5-0.2c0.1-0.1,0.2-0.2,0.2-0.4c0-0.2,0-0.3-0.1-0.4
			c-0.1-0.1-0.1-0.2-0.2-0.3c-0.1-0.1-0.2-0.1-0.3-0.1c-0.1,0-0.3,0-0.4,0c-0.3,0-0.6,0.1-0.8,0.2c-0.2,0.1-0.3,0.4-0.3,0.7H389.4z
			 M393.4,21c-0.1,0.1-0.2,0.1-0.3,0.2c-0.1,0-0.2,0.1-0.3,0.1c-0.1,0-0.2,0-0.4,0.1c-0.1,0-0.3,0-0.4,0.1c-0.1,0-0.3,0.1-0.4,0.1
			c-0.1,0-0.2,0.1-0.3,0.2c-0.1,0.1-0.2,0.1-0.2,0.3s-0.1,0.2-0.1,0.4c0,0.2,0,0.3,0.1,0.4s0.1,0.2,0.2,0.3c0.1,0.1,0.2,0.1,0.3,0.1
			s0.3,0,0.4,0c0.3,0,0.6-0.1,0.8-0.2c0.2-0.1,0.3-0.2,0.4-0.4c0.1-0.2,0.1-0.3,0.2-0.5c0-0.2,0-0.3,0-0.4V21z M400.6,20h1.7
			c0-0.4-0.1-0.7-0.3-1c-0.2-0.3-0.4-0.5-0.7-0.7c-0.3-0.2-0.6-0.3-0.9-0.4c-0.3-0.1-0.7-0.1-1.1-0.1c-0.5,0-1,0.1-1.3,0.3
			c-0.4,0.2-0.7,0.4-1,0.7c-0.3,0.3-0.5,0.7-0.6,1.1c-0.1,0.4-0.2,0.9-0.2,1.3c0,0.5,0.1,0.9,0.2,1.3c0.2,0.4,0.4,0.7,0.6,1
			c0.3,0.3,0.6,0.5,1,0.7c0.4,0.2,0.8,0.2,1.3,0.2c0.8,0,1.5-0.2,2-0.6c0.5-0.4,0.8-1.1,1-1.9h-1.6c-0.1,0.4-0.2,0.7-0.4,0.9
			c-0.2,0.2-0.5,0.3-0.9,0.3c-0.3,0-0.5-0.1-0.7-0.2c-0.2-0.1-0.3-0.3-0.4-0.5c-0.1-0.2-0.2-0.4-0.2-0.6s-0.1-0.5-0.1-0.7
			c0-0.2,0-0.5,0.1-0.7c0-0.2,0.1-0.5,0.2-0.6c0.1-0.2,0.3-0.4,0.5-0.5c0.2-0.1,0.4-0.2,0.7-0.2C400.1,18.9,400.5,19.3,400.6,20z
			 M403.4,15.4V24h1.7v-2.1l0.7-0.6l1.7,2.8h2.1l-2.6-3.9l2.3-2.3h-2l-2.1,2.2v-4.6H403.4z M410.2,22.2V24h1.9v-1.8H410.2z
			 M417.7,20h1.7c0-0.4-0.1-0.7-0.3-1c-0.2-0.3-0.4-0.5-0.7-0.7c-0.3-0.2-0.6-0.3-0.9-0.4c-0.3-0.1-0.7-0.1-1.1-0.1
			c-0.5,0-1,0.1-1.3,0.3c-0.4,0.2-0.7,0.4-1,0.7c-0.3,0.3-0.5,0.7-0.6,1.1c-0.1,0.4-0.2,0.9-0.2,1.3c0,0.5,0.1,0.9,0.2,1.3
			c0.2,0.4,0.4,0.7,0.6,1c0.3,0.3,0.6,0.5,1,0.7c0.4,0.2,0.8,0.2,1.3,0.2c0.8,0,1.5-0.2,2-0.6c0.5-0.4,0.8-1.1,1-1.9h-1.6
			c-0.1,0.4-0.2,0.7-0.4,0.9c-0.2,0.2-0.5,0.3-0.9,0.3c-0.3,0-0.5-0.1-0.7-0.2c-0.2-0.1-0.3-0.3-0.4-0.5c-0.1-0.2-0.2-0.4-0.2-0.6
			s-0.1-0.5-0.1-0.7c0-0.2,0-0.5,0.1-0.7c0-0.2,0.1-0.5,0.2-0.6c0.1-0.2,0.3-0.4,0.5-0.5c0.2-0.1,0.4-0.2,0.7-0.2
			C417.2,18.9,417.6,19.3,417.7,20z M421.9,20.9c0-0.2,0-0.5,0.1-0.7c0-0.2,0.1-0.5,0.2-0.6c0.1-0.2,0.3-0.3,0.5-0.4
			c0.2-0.1,0.4-0.2,0.7-0.2s0.5,0.1,0.7,0.2c0.2,0.1,0.4,0.3,0.5,0.4c0.1,0.2,0.2,0.4,0.3,0.6c0,0.2,0.1,0.5,0.1,0.7
			c0,0.2,0,0.5-0.1,0.7c0,0.2-0.1,0.4-0.3,0.6c-0.1,0.2-0.3,0.3-0.5,0.4c-0.2,0.1-0.4,0.2-0.7,0.2s-0.5-0.1-0.7-0.2
			c-0.2-0.1-0.3-0.3-0.5-0.4c-0.1-0.2-0.2-0.4-0.2-0.6C421.9,21.4,421.9,21.2,421.9,20.9z M420.2,20.9c0,0.5,0.1,0.9,0.2,1.3
			c0.2,0.4,0.4,0.7,0.6,1c0.3,0.3,0.6,0.5,1,0.6s0.8,0.2,1.3,0.2s0.9-0.1,1.3-0.2c0.4-0.2,0.7-0.4,1-0.6c0.3-0.3,0.5-0.6,0.6-1
			c0.2-0.4,0.2-0.8,0.2-1.3c0-0.5-0.1-0.9-0.2-1.3c-0.2-0.4-0.4-0.8-0.6-1c-0.3-0.3-0.6-0.5-1-0.7c-0.4-0.2-0.8-0.2-1.3-0.2
			s-0.9,0.1-1.3,0.2c-0.4,0.2-0.7,0.4-1,0.7c-0.3,0.3-0.5,0.6-0.6,1C420.3,20,420.2,20.4,420.2,20.9z M427.8,17.8V24h1.7v-3.6
			c0-0.3,0-0.5,0.1-0.7c0.1-0.2,0.2-0.3,0.3-0.4c0.1-0.1,0.3-0.2,0.4-0.2c0.1,0,0.2-0.1,0.3-0.1c0.3,0,0.5,0,0.6,0.1
			c0.1,0.1,0.2,0.2,0.3,0.4c0.1,0.2,0.1,0.3,0.1,0.5c0,0.2,0,0.4,0,0.5V24h1.7v-3.5c0-0.2,0-0.4,0-0.6c0-0.2,0.1-0.4,0.2-0.5
			c0.1-0.2,0.2-0.3,0.3-0.4c0.2-0.1,0.3-0.1,0.6-0.1s0.4,0,0.6,0.1c0.1,0.1,0.3,0.2,0.3,0.3s0.1,0.3,0.1,0.5c0,0.2,0,0.4,0,0.6V24
			h1.7v-4.2c0-0.4-0.1-0.7-0.2-1c-0.1-0.3-0.3-0.5-0.5-0.7s-0.4-0.3-0.7-0.4s-0.6-0.1-0.9-0.1c-0.4,0-0.8,0.1-1.1,0.3
			c-0.3,0.2-0.6,0.4-0.7,0.7c-0.2-0.4-0.4-0.7-0.7-0.8c-0.3-0.2-0.7-0.2-1.1-0.2c-0.4,0-0.8,0.1-1.1,0.3c-0.3,0.2-0.6,0.4-0.8,0.7h0
			v-0.8H427.8z"/>
		<circle class="st2" cx="307" cy="58" r="8"/>
		<path d="M326.3,59.7l1.1-3.1h0l1.1,3.1H326.3z M326.5,54.4l-3.2,8.6h1.9l0.7-1.9h3.2l0.6,1.9h2l-3.2-8.6H326.5z M332.2,54.4V63
			h1.7v-8.6H332.2z M337,55.8v-1.4h-1.7v1.4H337z M335.3,56.8V63h1.7v-6.2H335.3z M342.6,59h1.7c0-0.4-0.1-0.7-0.3-1
			c-0.2-0.3-0.4-0.5-0.7-0.7c-0.3-0.2-0.6-0.3-0.9-0.4c-0.3-0.1-0.7-0.1-1.1-0.1c-0.5,0-1,0.1-1.3,0.3c-0.4,0.2-0.7,0.4-1,0.7
			c-0.3,0.3-0.5,0.7-0.6,1.1c-0.1,0.4-0.2,0.9-0.2,1.3c0,0.5,0.1,0.9,0.2,1.3c0.2,0.4,0.4,0.7,0.6,1c0.3,0.3,0.6,0.5,1,0.7
			c0.4,0.2,0.8,0.2,1.3,0.2c0.8,0,1.5-0.2,2-0.6c0.5-0.4,0.8-1.1,1-1.9h-1.6c-0.1,0.4-0.2,0.7-0.4,0.9c-0.2,0.2-0.5,0.3-0.9,0.3
			c-0.3,0-0.5-0.1-0.7-0.2c-0.2-0.1-0.3-0.3-0.4-0.5c-0.1-0.2-0.2-0.4-0.2-0.6c0-0.2-0.1-0.5-0.1-0.7c0-0.2,0-0.5,0.1-0.7
			c0-0.2,0.1-0.5,0.2-0.6c0.1-0.2,0.3-0.4,0.5-0.5c0.2-0.1,0.4-0.2,0.7-0.2C342,57.9,342.5,58.3,342.6,59z M349.4,59.2h-2.8
			c0-0.1,0-0.3,0.1-0.4c0-0.2,0.1-0.3,0.2-0.4c0.1-0.1,0.3-0.2,0.4-0.3c0.2-0.1,0.4-0.1,0.7-0.1c0.4,0,0.7,0.1,0.9,0.3
			C349.2,58.5,349.3,58.8,349.4,59.2z M346.6,60.3h4.5c0-0.5,0-0.9-0.1-1.4c-0.1-0.4-0.3-0.8-0.6-1.2c-0.2-0.3-0.6-0.6-1-0.8
			c-0.4-0.2-0.9-0.3-1.4-0.3c-0.5,0-0.9,0.1-1.3,0.3c-0.4,0.2-0.7,0.4-1,0.7c-0.3,0.3-0.5,0.6-0.6,1c-0.2,0.4-0.2,0.8-0.2,1.3
			c0,0.5,0.1,0.9,0.2,1.3c0.2,0.4,0.4,0.7,0.6,1c0.3,0.3,0.6,0.5,1,0.7c0.4,0.2,0.8,0.2,1.3,0.2c0.7,0,1.3-0.2,1.8-0.5
			s0.9-0.9,1.1-1.6h-1.5c-0.1,0.2-0.2,0.4-0.5,0.6c-0.2,0.2-0.5,0.3-0.9,0.3c-0.5,0-0.8-0.1-1.1-0.4
			C346.8,61.3,346.7,60.9,346.6,60.3z M354.1,58.8v-1.8h-1.9v1.8H354.1z M352.2,61.2V63h1.9v-1.8H352.2z M359.1,54.4V63h1.1v-3.9
			h4.5V63h1.1v-8.6h-1.1v3.7h-4.5v-3.7H359.1z M368.7,55.7v-1.2h-1v1.2H368.7z M367.7,56.8V63h1v-6.2H367.7z M379.1,63
			c-0.2,0.1-0.4,0.2-0.7,0.2c-0.3,0-0.5-0.1-0.6-0.2c-0.2-0.2-0.2-0.4-0.2-0.7c-0.3,0.3-0.6,0.6-1,0.7c-0.4,0.1-0.8,0.2-1.2,0.2
			c-0.3,0-0.5,0-0.8-0.1c-0.2-0.1-0.5-0.2-0.6-0.3s-0.3-0.3-0.4-0.5c-0.1-0.2-0.2-0.5-0.2-0.8c0-0.4,0.1-0.6,0.2-0.9
			c0.1-0.2,0.3-0.4,0.5-0.5c0.2-0.1,0.4-0.3,0.7-0.3c0.3-0.1,0.5-0.1,0.8-0.2c0.3-0.1,0.5-0.1,0.8-0.1c0.3,0,0.5-0.1,0.7-0.1
			c0.2-0.1,0.3-0.1,0.5-0.2c0.1-0.1,0.2-0.3,0.2-0.4c0-0.2,0-0.4-0.1-0.5c-0.1-0.1-0.2-0.2-0.3-0.3c-0.1-0.1-0.3-0.1-0.4-0.1
			c-0.2,0-0.3,0-0.5,0c-0.4,0-0.8,0.1-1.1,0.3c-0.3,0.2-0.4,0.5-0.5,0.9h-1c0-0.4,0.1-0.7,0.2-1c0.1-0.3,0.3-0.5,0.6-0.6
			c0.2-0.2,0.5-0.3,0.8-0.4c0.3-0.1,0.6-0.1,1-0.1c0.3,0,0.6,0,0.8,0.1c0.3,0,0.5,0.1,0.8,0.3c0.2,0.1,0.4,0.3,0.5,0.5
			s0.2,0.5,0.2,0.9v3.2c0,0.2,0,0.4,0,0.5c0,0.1,0.1,0.2,0.3,0.2c0.1,0,0.2,0,0.3-0.1V63z M377.4,59.8c-0.1,0.1-0.3,0.2-0.5,0.2
			c-0.2,0-0.4,0.1-0.7,0.1c-0.2,0-0.5,0.1-0.7,0.1c-0.2,0-0.4,0.1-0.6,0.2c-0.2,0.1-0.3,0.2-0.5,0.3c-0.1,0.1-0.2,0.3-0.2,0.6
			c0,0.2,0,0.3,0.1,0.4c0.1,0.1,0.2,0.2,0.3,0.3c0.1,0.1,0.2,0.1,0.4,0.2c0.1,0,0.3,0,0.5,0c0.3,0,0.6,0,0.9-0.1
			c0.2-0.1,0.4-0.2,0.6-0.3c0.2-0.1,0.3-0.3,0.3-0.5c0.1-0.2,0.1-0.3,0.1-0.5V59.8z M380.1,54.4V63h1v-8.6H380.1z M382.8,54.4V63h1
			v-8.6H382.8z M385.5,61.7V63h1.3v-1.3H385.5z M386.7,57.1v-2.6h-1.1v2.6l0.3,3.7h0.5L386.7,57.1z"/>
		<circle class="st2" cx="307" cy="86" r="8"/>
		<path d="M326.1,85.9v-2h1.8c0.2,0,0.3,0,0.5,0c0.2,0,0.3,0.1,0.4,0.1c0.1,0.1,0.2,0.2,0.3,0.3c0.1,0.1,0.1,0.3,0.1,0.5
			c0,0.4-0.1,0.6-0.3,0.8c-0.2,0.2-0.5,0.2-0.8,0.2H326.1z M324.3,82.4V91h4.2c0.4,0,0.8,0,1.1-0.1c0.4-0.1,0.7-0.2,1-0.4
			c0.3-0.2,0.5-0.5,0.7-0.8c0.2-0.3,0.3-0.7,0.3-1.1c0-0.5-0.1-1-0.4-1.4c-0.3-0.4-0.6-0.7-1.2-0.8c0.4-0.2,0.7-0.4,0.9-0.7
			c0.2-0.3,0.3-0.6,0.3-1.1c0-0.4-0.1-0.7-0.2-1c-0.1-0.3-0.3-0.5-0.6-0.6c-0.2-0.2-0.5-0.3-0.9-0.4s-0.7-0.1-1.1-0.1H324.3z
			 M326.1,89.5v-2.4h2.1c0.4,0,0.7,0.1,1,0.3c0.2,0.2,0.4,0.5,0.4,0.9c0,0.2,0,0.4-0.1,0.6c-0.1,0.1-0.2,0.3-0.3,0.3
			c-0.1,0.1-0.3,0.1-0.4,0.2c-0.2,0-0.3,0-0.5,0H326.1z M334,87.9c0-0.2,0-0.5,0.1-0.7c0-0.2,0.1-0.5,0.2-0.6
			c0.1-0.2,0.3-0.3,0.5-0.4c0.2-0.1,0.4-0.2,0.7-0.2s0.5,0.1,0.7,0.2c0.2,0.1,0.4,0.3,0.5,0.4c0.1,0.2,0.2,0.4,0.3,0.6
			c0,0.2,0.1,0.5,0.1,0.7s0,0.5-0.1,0.7c0,0.2-0.1,0.4-0.3,0.6c-0.1,0.2-0.3,0.3-0.5,0.4c-0.2,0.1-0.4,0.2-0.7,0.2s-0.5-0.1-0.7-0.2
			c-0.2-0.1-0.3-0.3-0.5-0.4c-0.1-0.2-0.2-0.4-0.2-0.6C334.1,88.4,334,88.2,334,87.9z M332.3,87.9c0,0.5,0.1,0.9,0.2,1.3
			c0.2,0.4,0.4,0.7,0.6,1c0.3,0.3,0.6,0.5,1,0.6s0.8,0.2,1.3,0.2s0.9-0.1,1.3-0.2c0.4-0.2,0.7-0.4,1-0.6c0.3-0.3,0.5-0.6,0.6-1
			s0.2-0.8,0.2-1.3s-0.1-0.9-0.2-1.3c-0.2-0.4-0.4-0.8-0.6-1c-0.3-0.3-0.6-0.5-1-0.7c-0.4-0.2-0.8-0.2-1.3-0.2s-0.9,0.1-1.3,0.2
			c-0.4,0.2-0.7,0.4-1,0.7c-0.3,0.3-0.5,0.6-0.6,1C332.4,87,332.3,87.4,332.3,87.9z M344.4,87.9c0,0.3,0,0.5-0.1,0.7
			c-0.1,0.2-0.1,0.5-0.3,0.6c-0.1,0.2-0.3,0.3-0.5,0.4c-0.2,0.1-0.4,0.2-0.6,0.2c-0.2,0-0.5-0.1-0.6-0.2c-0.2-0.1-0.3-0.3-0.5-0.4
			c-0.1-0.2-0.2-0.4-0.3-0.6c-0.1-0.2-0.1-0.5-0.1-0.7c0-0.3,0-0.5,0.1-0.8c0.1-0.2,0.1-0.5,0.3-0.6s0.3-0.3,0.5-0.4
			c0.2-0.1,0.4-0.2,0.6-0.2c0.3,0,0.5,0.1,0.6,0.2c0.2,0.1,0.3,0.2,0.5,0.4c0.1,0.2,0.2,0.4,0.3,0.6
			C344.4,87.4,344.4,87.6,344.4,87.9z M339.9,82.4V91h1.6v-0.8h0c0.2,0.3,0.5,0.6,0.8,0.7c0.4,0.1,0.8,0.2,1.2,0.2
			c0.3,0,0.6-0.1,0.9-0.2c0.3-0.1,0.6-0.3,0.8-0.6c0.2-0.3,0.4-0.6,0.6-1c0.2-0.4,0.2-0.9,0.2-1.5s-0.1-1.1-0.2-1.5
			c-0.2-0.4-0.4-0.8-0.6-1c-0.2-0.3-0.5-0.5-0.8-0.6c-0.3-0.1-0.6-0.2-0.9-0.2c-0.4,0-0.8,0.1-1.1,0.2c-0.4,0.1-0.6,0.4-0.8,0.7h0
			v-3.1H339.9z M349.2,86.8v-1.8h-1.9v1.8H349.2z M347.3,89.2V91h1.9v-1.8H347.3z M354,82.4V91h1v-3.5c0-0.3,0-0.5,0.1-0.8
			c0.1-0.2,0.2-0.4,0.3-0.6c0.2-0.2,0.3-0.3,0.6-0.4c0.2-0.1,0.5-0.1,0.8-0.1c0.4,0,0.7,0.1,0.9,0.3s0.3,0.5,0.3,0.9V91h1v-4.1
			c0-0.3,0-0.6-0.1-0.9c-0.1-0.3-0.2-0.5-0.3-0.7c-0.2-0.2-0.4-0.4-0.7-0.5s-0.6-0.2-1-0.2c-0.2,0-0.4,0-0.6,0.1
			c-0.2,0-0.4,0.1-0.6,0.2c-0.2,0.1-0.3,0.2-0.5,0.3c-0.1,0.1-0.3,0.3-0.3,0.5h0v-3.3H354z M365,87.3h-3.6c0-0.2,0.1-0.5,0.2-0.7
			c0.1-0.2,0.2-0.4,0.4-0.6c0.2-0.2,0.3-0.3,0.5-0.4c0.2-0.1,0.5-0.1,0.7-0.1c0.3,0,0.5,0,0.7,0.1c0.2,0.1,0.4,0.2,0.6,0.4
			c0.2,0.2,0.3,0.3,0.4,0.6C364.9,86.8,365,87.1,365,87.3z M366,89h-1c-0.1,0.4-0.3,0.7-0.6,0.9c-0.3,0.2-0.6,0.3-1.1,0.3
			c-0.3,0-0.6-0.1-0.9-0.2c-0.2-0.1-0.5-0.3-0.6-0.4c-0.2-0.2-0.3-0.4-0.3-0.6c-0.1-0.2-0.1-0.5-0.1-0.8h4.6c0-0.4,0-0.8-0.1-1.2
			c-0.1-0.4-0.2-0.8-0.5-1.2c-0.2-0.4-0.5-0.6-0.9-0.9c-0.4-0.2-0.8-0.3-1.4-0.3c-0.4,0-0.8,0.1-1.2,0.2c-0.4,0.2-0.7,0.4-0.9,0.7
			c-0.3,0.3-0.5,0.6-0.6,1c-0.1,0.4-0.2,0.8-0.2,1.3c0,0.5,0.1,0.9,0.2,1.3c0.1,0.4,0.3,0.7,0.6,1c0.2,0.3,0.6,0.5,0.9,0.7
			c0.4,0.2,0.8,0.2,1.3,0.2c0.7,0,1.3-0.2,1.8-0.5C365.5,90.3,365.8,89.7,366,89z M367.2,82.4V91h1v-8.6H367.2z M369.8,82.4V91h1
			v-8.6H369.8z M373.2,87.9c0-0.4,0-0.7,0.1-1c0.1-0.3,0.2-0.5,0.4-0.7c0.2-0.2,0.4-0.4,0.6-0.5c0.2-0.1,0.5-0.2,0.8-0.2
			s0.5,0.1,0.7,0.2c0.2,0.1,0.4,0.3,0.6,0.5c0.2,0.2,0.3,0.4,0.4,0.7c0.1,0.3,0.2,0.6,0.2,1s-0.1,0.7-0.2,1
			c-0.1,0.3-0.2,0.5-0.4,0.7c-0.2,0.2-0.4,0.3-0.6,0.4c-0.2,0.1-0.5,0.2-0.7,0.2s-0.5-0.1-0.8-0.2c-0.2-0.1-0.4-0.3-0.6-0.4
			c-0.2-0.2-0.3-0.4-0.4-0.7C373.2,88.6,373.2,88.3,373.2,87.9z M372.1,87.9c0,0.5,0.1,0.9,0.2,1.3c0.1,0.4,0.3,0.7,0.6,1
			c0.3,0.3,0.6,0.5,0.9,0.7c0.4,0.2,0.8,0.2,1.3,0.2c0.5,0,0.9-0.1,1.3-0.2c0.4-0.2,0.7-0.4,0.9-0.7c0.3-0.3,0.4-0.6,0.6-1
			c0.1-0.4,0.2-0.8,0.2-1.3s-0.1-0.9-0.2-1.3c-0.1-0.4-0.3-0.7-0.6-1c-0.3-0.3-0.6-0.5-0.9-0.7c-0.4-0.2-0.8-0.3-1.3-0.3
			c-0.5,0-0.9,0.1-1.3,0.3s-0.7,0.4-0.9,0.7c-0.3,0.3-0.4,0.6-0.6,1C372.2,87,372.1,87.4,372.1,87.9z"/>
		<circle class="st2" cx="307" cy="114" r="8"/>
		<path d="M329.6,113.3h1.8c-0.1-0.5-0.2-0.9-0.4-1.3c-0.2-0.4-0.5-0.7-0.8-1c-0.3-0.3-0.7-0.5-1.1-0.6c-0.4-0.1-0.9-0.2-1.3-0.2
			c-0.7,0-1.2,0.1-1.8,0.3c-0.5,0.2-1,0.6-1.3,1c-0.4,0.4-0.6,0.9-0.8,1.4c-0.2,0.5-0.3,1.1-0.3,1.8c0,0.6,0.1,1.2,0.3,1.8
			c0.2,0.5,0.5,1,0.8,1.4c0.4,0.4,0.8,0.7,1.3,0.9c0.5,0.2,1.1,0.3,1.8,0.3c0.5,0,1-0.1,1.5-0.2c0.4-0.2,0.8-0.4,1.2-0.7
			c0.3-0.3,0.6-0.7,0.8-1.1c0.2-0.4,0.3-0.9,0.4-1.5h-1.8c-0.1,0.6-0.3,1-0.6,1.4c-0.3,0.4-0.8,0.5-1.3,0.5c-0.4,0-0.8-0.1-1.1-0.2
			c-0.3-0.2-0.5-0.4-0.7-0.7c-0.2-0.3-0.3-0.6-0.4-0.9c-0.1-0.3-0.1-0.7-0.1-1.1c0-0.4,0-0.7,0.1-1.1c0.1-0.4,0.2-0.7,0.4-0.9
			c0.2-0.3,0.4-0.5,0.7-0.7c0.3-0.2,0.7-0.3,1.1-0.3c0.2,0,0.5,0,0.7,0.1c0.2,0.1,0.4,0.2,0.6,0.3c0.2,0.1,0.3,0.3,0.4,0.5
			C329.5,112.9,329.6,113.1,329.6,113.3z M332.6,114.7c0-0.4,0.1-0.7,0.3-1s0.4-0.5,0.7-0.6c0.3-0.2,0.6-0.3,0.9-0.3
			c0.3-0.1,0.7-0.1,1-0.1c0.3,0,0.6,0,0.9,0.1c0.3,0,0.6,0.1,0.9,0.3c0.3,0.1,0.5,0.3,0.6,0.5c0.2,0.2,0.3,0.5,0.3,0.9v3.2
			c0,0.3,0,0.5,0,0.8c0,0.3,0.1,0.4,0.2,0.6h-1.7c0-0.1-0.1-0.2-0.1-0.3c0-0.1,0-0.2,0-0.3c-0.3,0.3-0.6,0.5-1,0.6
			c-0.4,0.1-0.7,0.2-1.1,0.2c-0.3,0-0.6,0-0.8-0.1c-0.3-0.1-0.5-0.2-0.7-0.3c-0.2-0.2-0.3-0.3-0.5-0.6c-0.1-0.2-0.2-0.5-0.2-0.8
			c0-0.4,0.1-0.6,0.2-0.9c0.1-0.2,0.3-0.4,0.5-0.6c0.2-0.1,0.4-0.2,0.7-0.3c0.3-0.1,0.5-0.1,0.8-0.2c0.3,0,0.5-0.1,0.8-0.1
			c0.2,0,0.5-0.1,0.7-0.1c0.2,0,0.3-0.1,0.5-0.2c0.1-0.1,0.2-0.2,0.2-0.4c0-0.2,0-0.3-0.1-0.4c-0.1-0.1-0.1-0.2-0.2-0.3
			c-0.1-0.1-0.2-0.1-0.3-0.1c-0.1,0-0.3,0-0.4,0c-0.3,0-0.6,0.1-0.8,0.2c-0.2,0.1-0.3,0.4-0.3,0.7H332.6z M336.5,116
			c-0.1,0.1-0.2,0.1-0.3,0.2c-0.1,0-0.2,0.1-0.3,0.1c-0.1,0-0.2,0-0.4,0.1c-0.1,0-0.3,0-0.4,0.1c-0.1,0-0.3,0.1-0.4,0.1
			c-0.1,0-0.2,0.1-0.3,0.2c-0.1,0.1-0.2,0.1-0.2,0.3c-0.1,0.1-0.1,0.2-0.1,0.4c0,0.2,0,0.3,0.1,0.4c0.1,0.1,0.1,0.2,0.2,0.3
			c0.1,0.1,0.2,0.1,0.3,0.1c0.1,0,0.3,0,0.4,0c0.3,0,0.6-0.1,0.8-0.2s0.3-0.2,0.4-0.4c0.1-0.2,0.1-0.3,0.2-0.5c0-0.2,0-0.3,0-0.4
			V116z M339.5,112.8v6.2h1.7v-2.8c0-0.3,0-0.5,0.1-0.8c0.1-0.2,0.1-0.4,0.3-0.6c0.1-0.2,0.3-0.3,0.5-0.4c0.2-0.1,0.5-0.2,0.8-0.2
			c0.1,0,0.2,0,0.3,0c0.1,0,0.2,0,0.3,0v-1.6c-0.1,0-0.3-0.1-0.4-0.1c-0.2,0-0.4,0-0.6,0.1c-0.2,0.1-0.4,0.2-0.6,0.3
			c-0.2,0.1-0.3,0.3-0.5,0.4c-0.1,0.2-0.2,0.3-0.3,0.5h0v-1.2H339.5z M345.5,115.9c0-0.2,0-0.5,0.1-0.7c0-0.2,0.1-0.5,0.2-0.6
			c0.1-0.2,0.3-0.3,0.5-0.4c0.2-0.1,0.4-0.2,0.7-0.2c0.3,0,0.5,0.1,0.7,0.2c0.2,0.1,0.4,0.3,0.5,0.4c0.1,0.2,0.2,0.4,0.3,0.6
			c0,0.2,0.1,0.5,0.1,0.7s0,0.5-0.1,0.7c0,0.2-0.1,0.4-0.3,0.6c-0.1,0.2-0.3,0.3-0.5,0.4c-0.2,0.1-0.4,0.2-0.7,0.2
			c-0.3,0-0.5-0.1-0.7-0.2c-0.2-0.1-0.3-0.3-0.5-0.4c-0.1-0.2-0.2-0.4-0.2-0.6C345.5,116.4,345.5,116.2,345.5,115.9z M343.8,115.9
			c0,0.5,0.1,0.9,0.2,1.3s0.4,0.7,0.6,1c0.3,0.3,0.6,0.5,1,0.6s0.8,0.2,1.3,0.2c0.5,0,0.9-0.1,1.3-0.2c0.4-0.2,0.7-0.4,1-0.6
			c0.3-0.3,0.5-0.6,0.6-1c0.2-0.4,0.2-0.8,0.2-1.3s-0.1-0.9-0.2-1.3c-0.2-0.4-0.4-0.8-0.6-1c-0.3-0.3-0.6-0.5-1-0.7
			c-0.4-0.2-0.8-0.2-1.3-0.2c-0.5,0-0.9,0.1-1.3,0.2c-0.4,0.2-0.7,0.4-1,0.7c-0.3,0.3-0.5,0.6-0.6,1
			C343.9,115,343.8,115.4,343.8,115.9z M351.4,110.4v8.6h1.7v-8.6H351.4z M356.4,114.8v-1.8h-1.9v1.8H356.4z M354.5,117.2v1.8h1.9
			v-1.8H354.5z M361.4,110.4v8.6h1.1v-7.1h0l2.7,7.1h1l2.7-7.1h0v7.1h1.1v-8.6h-1.6l-2.7,7.2l-2.7-7.2H361.4z M372.4,115.9
			c0-0.4,0-0.7,0.1-1c0.1-0.3,0.2-0.5,0.4-0.7c0.2-0.2,0.4-0.4,0.6-0.5c0.2-0.1,0.5-0.2,0.8-0.2c0.3,0,0.5,0.1,0.7,0.2
			c0.2,0.1,0.4,0.3,0.6,0.5c0.2,0.2,0.3,0.4,0.4,0.7c0.1,0.3,0.2,0.6,0.2,1s-0.1,0.7-0.2,1c-0.1,0.3-0.2,0.5-0.4,0.7
			c-0.2,0.2-0.4,0.3-0.6,0.4c-0.2,0.1-0.5,0.2-0.7,0.2c-0.3,0-0.5-0.1-0.8-0.2c-0.2-0.1-0.4-0.3-0.6-0.4c-0.2-0.2-0.3-0.4-0.4-0.7
			C372.5,116.6,372.4,116.3,372.4,115.9z M371.3,115.9c0,0.5,0.1,0.9,0.2,1.3c0.1,0.4,0.3,0.7,0.6,1c0.3,0.3,0.6,0.5,0.9,0.7
			c0.4,0.2,0.8,0.2,1.3,0.2c0.5,0,0.9-0.1,1.3-0.2c0.4-0.2,0.7-0.4,0.9-0.7c0.3-0.3,0.4-0.6,0.6-1c0.1-0.4,0.2-0.8,0.2-1.3
			s-0.1-0.9-0.2-1.3c-0.1-0.4-0.3-0.7-0.6-1c-0.3-0.3-0.6-0.5-0.9-0.7c-0.4-0.2-0.8-0.3-1.3-0.3c-0.5,0-0.9,0.1-1.3,0.3
			s-0.7,0.4-0.9,0.7c-0.3,0.3-0.4,0.6-0.6,1C371.4,115,371.3,115.4,371.3,115.9z M378.5,112.8v6.2h1v-2.8c0-0.4,0-0.8,0.1-1.1
			c0.1-0.3,0.2-0.6,0.4-0.8c0.2-0.2,0.4-0.4,0.7-0.5s0.6-0.2,1-0.2v-1.1c-0.6,0-1,0.1-1.4,0.3c-0.4,0.2-0.7,0.6-0.9,1.1h0v-1.3
			H378.5z M382.8,112.8v6.2h1v-3.5c0-0.3,0-0.5,0.1-0.8c0.1-0.2,0.2-0.4,0.3-0.6c0.2-0.2,0.3-0.3,0.6-0.4c0.2-0.1,0.5-0.1,0.8-0.1
			c0.4,0,0.7,0.1,0.9,0.3c0.2,0.2,0.3,0.5,0.3,0.9v4.2h1v-4.1c0-0.3,0-0.6-0.1-0.9c-0.1-0.3-0.2-0.5-0.3-0.7
			c-0.2-0.2-0.4-0.4-0.7-0.5s-0.6-0.2-1-0.2c-0.9,0-1.6,0.4-2,1.1h0v-1H382.8z M390.5,111.7v-1.2h-1v1.2H390.5z M389.5,112.8v6.2h1
			v-6.2H389.5z M392.1,112.8v6.2h1v-3.5c0-0.3,0-0.5,0.1-0.8c0.1-0.2,0.2-0.4,0.3-0.6c0.2-0.2,0.3-0.3,0.6-0.4
			c0.2-0.1,0.5-0.1,0.8-0.1c0.4,0,0.7,0.1,0.9,0.3s0.3,0.5,0.3,0.9v4.2h1v-4.1c0-0.3,0-0.6-0.1-0.9c-0.1-0.3-0.2-0.5-0.3-0.7
			c-0.2-0.2-0.4-0.4-0.7-0.5s-0.6-0.2-1-0.2c-0.9,0-1.6,0.4-2,1.1h0v-1H392.1z M404.1,118.5v-5.7h-1v0.9h0c-0.2-0.3-0.4-0.6-0.8-0.8
			c-0.3-0.2-0.7-0.3-1.1-0.3c-0.5,0-1,0.1-1.4,0.3c-0.4,0.2-0.7,0.5-0.9,0.8c-0.2,0.3-0.4,0.7-0.5,1.1c-0.1,0.4-0.1,0.8-0.1,1.1
			c0,0.4,0.1,0.8,0.2,1.2c0.1,0.4,0.3,0.7,0.5,1c0.2,0.3,0.5,0.5,0.9,0.7c0.3,0.2,0.7,0.3,1.2,0.3c0.4,0,0.8-0.1,1.1-0.3
			c0.4-0.2,0.6-0.5,0.8-0.9h0v0.4c0,0.3,0,0.7-0.1,0.9c-0.1,0.3-0.2,0.5-0.3,0.7c-0.2,0.2-0.3,0.4-0.6,0.5c-0.2,0.1-0.5,0.2-0.9,0.2
			c-0.2,0-0.3,0-0.5-0.1c-0.2,0-0.4-0.1-0.5-0.2c-0.2-0.1-0.3-0.2-0.4-0.3c-0.1-0.1-0.2-0.3-0.2-0.5h-1c0,0.3,0.1,0.6,0.3,0.9
			c0.2,0.2,0.4,0.4,0.6,0.6c0.2,0.1,0.5,0.2,0.8,0.3c0.3,0.1,0.6,0.1,0.9,0.1c1,0,1.7-0.3,2.2-0.8
			C403.9,120.2,404.1,119.5,404.1,118.5z M401.3,118.2c-0.3,0-0.6-0.1-0.8-0.2c-0.2-0.1-0.4-0.3-0.5-0.6c-0.1-0.2-0.2-0.5-0.3-0.8
			c-0.1-0.3-0.1-0.6-0.1-0.8c0-0.3,0-0.6,0.1-0.9c0.1-0.3,0.2-0.5,0.3-0.7c0.2-0.2,0.3-0.4,0.6-0.5c0.2-0.1,0.5-0.2,0.8-0.2
			c0.3,0,0.6,0.1,0.8,0.2c0.2,0.1,0.4,0.3,0.5,0.5c0.1,0.2,0.2,0.4,0.3,0.7s0.1,0.5,0.1,0.8c0,0.3,0,0.6-0.1,0.9
			c-0.1,0.3-0.2,0.5-0.3,0.8c-0.1,0.2-0.3,0.4-0.6,0.6C401.9,118.1,401.6,118.2,401.3,118.2z"/>
	</g>
</g>
<path class="st3" d="M299,1h174c6.1,0,11,4.9,11,11v110c0,6.1-4.9,11-11,11H299c-6.1,0-11-4.9-11-11V12C288,5.9,292.9,1,299,1z"/>
<path class="st1" d="M291,154h32c2.2,0,4,1.8,4,4v40c0,2.2-1.8,4-4,4h-32c-2.2,0-4-1.8-4-4v-40C287,155.8,288.8,154,291,154z"/>
<circle cx="309" cy="178" r="8"/>
<path d="M301,182h14v4h-14V182z"/>
<circle cx="301" cy="180" r="6"/>
<circle cx="315" cy="182" r="4"/>
<path class="st1" d="M338.7,178.7h-2.7c0,0.8,0.1,1.5,0.4,2.1c0.3,0.6,0.7,1.1,1.2,1.4c0.5,0.4,1.1,0.6,1.8,0.8
	c0.7,0.2,1.4,0.3,2.1,0.3c0.9,0,1.6-0.1,2.3-0.3c0.7-0.2,1.2-0.5,1.7-0.8c0.5-0.4,0.8-0.8,1-1.3c0.2-0.5,0.3-1.1,0.3-1.6
	c0-0.7-0.2-1.3-0.5-1.8c-0.3-0.5-0.7-0.8-1.1-1.1c-0.4-0.3-0.8-0.5-1.3-0.6c-0.4-0.1-0.8-0.2-1-0.3c-0.8-0.2-1.5-0.4-2-0.5
	c-0.5-0.1-0.9-0.3-1.2-0.4c-0.3-0.1-0.5-0.3-0.6-0.4s-0.1-0.4-0.1-0.6c0-0.3,0.1-0.5,0.2-0.7c0.1-0.2,0.3-0.3,0.4-0.4
	c0.2-0.1,0.4-0.2,0.6-0.3s0.5-0.1,0.7-0.1c0.3,0,0.7,0,1,0.1c0.3,0.1,0.6,0.2,0.8,0.3c0.2,0.1,0.4,0.3,0.5,0.6
	c0.1,0.3,0.2,0.6,0.3,1h2.7c0-0.7-0.1-1.4-0.4-1.9c-0.3-0.5-0.7-1-1.1-1.3c-0.5-0.3-1-0.6-1.7-0.7c-0.6-0.2-1.3-0.2-1.9-0.2
	c-0.6,0-1.2,0.1-1.7,0.2c-0.6,0.2-1.1,0.4-1.5,0.7c-0.5,0.3-0.8,0.7-1.1,1.2c-0.3,0.5-0.4,1.1-0.4,1.7c0,0.6,0.1,1.1,0.3,1.5
	c0.2,0.4,0.5,0.8,0.9,1c0.4,0.3,0.8,0.5,1.2,0.7c0.5,0.2,0.9,0.3,1.4,0.4c0.5,0.1,0.9,0.3,1.4,0.4c0.5,0.1,0.9,0.2,1.2,0.4
	c0.4,0.1,0.6,0.3,0.9,0.5c0.2,0.2,0.3,0.5,0.3,0.8c0,0.3-0.1,0.6-0.3,0.8c-0.2,0.2-0.4,0.4-0.6,0.5c-0.3,0.1-0.5,0.2-0.8,0.3
	c-0.3,0-0.6,0.1-0.8,0.1c-0.4,0-0.7,0-1.1-0.1c-0.3-0.1-0.7-0.2-0.9-0.4c-0.3-0.2-0.5-0.4-0.6-0.7
	C338.7,179.5,338.7,179.2,338.7,178.7z M348.2,170.1V183h2.6v-12.9H348.2z M352.7,176.6c0-0.6,0.2-1.1,0.4-1.5c0.3-0.4,0.6-0.7,1-1
	c0.4-0.2,0.9-0.4,1.4-0.5c0.5-0.1,1-0.2,1.5-0.2c0.5,0,0.9,0,1.4,0.1c0.5,0.1,0.9,0.2,1.3,0.4s0.7,0.5,1,0.8
	c0.3,0.3,0.4,0.8,0.4,1.3v4.8c0,0.4,0,0.8,0.1,1.2s0.1,0.7,0.3,0.9h-2.6c0-0.1-0.1-0.3-0.1-0.4c0-0.2,0-0.3-0.1-0.5
	c-0.4,0.4-0.9,0.7-1.4,0.9s-1.1,0.3-1.7,0.3c-0.4,0-0.9-0.1-1.2-0.2c-0.4-0.1-0.7-0.3-1-0.5c-0.3-0.2-0.5-0.5-0.7-0.9
	c-0.2-0.3-0.2-0.8-0.2-1.2c0-0.5,0.1-1,0.3-1.3c0.2-0.3,0.4-0.6,0.7-0.8c0.3-0.2,0.6-0.4,1-0.4c0.4-0.1,0.8-0.2,1.2-0.3
	s0.8-0.1,1.1-0.1c0.4,0,0.7-0.1,1-0.2c0.3-0.1,0.5-0.2,0.7-0.3c0.2-0.1,0.2-0.3,0.2-0.6c0-0.3,0-0.5-0.1-0.6
	c-0.1-0.2-0.2-0.3-0.4-0.4c-0.1-0.1-0.3-0.2-0.5-0.2c-0.2,0-0.4-0.1-0.6-0.1c-0.5,0-0.9,0.1-1.2,0.3s-0.5,0.6-0.5,1.1H352.7z
	 M358.6,178.4c-0.1,0.1-0.2,0.2-0.4,0.2c-0.2,0-0.3,0.1-0.5,0.1c-0.2,0-0.4,0.1-0.6,0.1s-0.4,0.1-0.6,0.1c-0.2,0-0.4,0.1-0.6,0.1
	c-0.2,0.1-0.3,0.1-0.5,0.3c-0.1,0.1-0.2,0.2-0.3,0.4c-0.1,0.2-0.1,0.4-0.1,0.6c0,0.2,0,0.4,0.1,0.6c0.1,0.2,0.2,0.3,0.3,0.4
	c0.1,0.1,0.3,0.1,0.5,0.2c0.2,0,0.4,0.1,0.6,0.1c0.5,0,0.9-0.1,1.2-0.3s0.5-0.4,0.6-0.6c0.1-0.2,0.2-0.5,0.2-0.7
	c0-0.2,0.1-0.4,0.1-0.6V178.4z M369.5,177h2.5c0-0.6-0.2-1.1-0.4-1.5c-0.3-0.4-0.6-0.8-1-1.1c-0.4-0.3-0.9-0.5-1.4-0.7
	c-0.5-0.1-1-0.2-1.6-0.2c-0.8,0-1.4,0.1-2,0.4c-0.6,0.3-1.1,0.6-1.5,1.1c-0.4,0.4-0.7,1-0.9,1.6c-0.2,0.6-0.3,1.3-0.3,2
	c0,0.7,0.1,1.3,0.3,1.9c0.2,0.6,0.5,1.1,1,1.5c0.4,0.4,0.9,0.8,1.5,1c0.6,0.2,1.2,0.3,1.9,0.3c1.2,0,2.2-0.3,3-1
	c0.8-0.6,1.3-1.6,1.4-2.8h-2.5c-0.1,0.6-0.3,1-0.6,1.4c-0.3,0.3-0.8,0.5-1.4,0.5c-0.4,0-0.7-0.1-1-0.3s-0.5-0.4-0.7-0.7
	c-0.2-0.3-0.3-0.6-0.3-1c-0.1-0.3-0.1-0.7-0.1-1c0-0.3,0-0.7,0.1-1c0.1-0.4,0.2-0.7,0.4-1c0.2-0.3,0.4-0.5,0.7-0.7
	c0.3-0.2,0.6-0.3,1-0.3C368.7,175.4,369.3,175.9,369.5,177z M373.7,170.1V183h2.6v-3.2l1-1l2.6,4.2h3.1l-3.9-5.9l3.5-3.4h-3
	l-3.2,3.3v-6.9H373.7z M399.4,183l2.9-9.3h-2.6L398,180h0l-1.6-6.3h-2.5l-1.5,6.3h0l-1.7-6.3h-2.7l3,9.3h2.6l1.6-6.2h0l1.7,6.2
	H399.4z M405.7,178.4c0-0.4,0-0.7,0.1-1.1s0.2-0.7,0.4-1c0.2-0.3,0.4-0.5,0.7-0.7c0.3-0.2,0.6-0.3,1.1-0.3s0.8,0.1,1.1,0.3
	c0.3,0.2,0.5,0.4,0.7,0.7c0.2,0.3,0.3,0.6,0.4,1s0.1,0.7,0.1,1.1c0,0.4,0,0.7-0.1,1.1c-0.1,0.3-0.2,0.7-0.4,1
	c-0.2,0.3-0.4,0.5-0.7,0.7c-0.3,0.2-0.6,0.3-1.1,0.3s-0.8-0.1-1.1-0.3s-0.5-0.4-0.7-0.7c-0.2-0.3-0.3-0.6-0.4-1
	C405.8,179.1,405.7,178.7,405.7,178.4z M403.2,178.4c0,0.7,0.1,1.4,0.3,2c0.2,0.6,0.6,1.1,1,1.5c0.4,0.4,0.9,0.7,1.5,1
	c0.6,0.2,1.2,0.3,2,0.3s1.4-0.1,2-0.3c0.6-0.2,1.1-0.6,1.5-1c0.4-0.4,0.7-0.9,1-1.5c0.2-0.6,0.3-1.3,0.3-2s-0.1-1.4-0.3-2
	c-0.2-0.6-0.6-1.1-1-1.5c-0.4-0.4-0.9-0.8-1.5-1c-0.6-0.2-1.2-0.4-2-0.4s-1.4,0.1-2,0.4c-0.6,0.2-1.1,0.6-1.5,1
	c-0.4,0.4-0.7,0.9-1,1.5C403.3,176.9,403.2,177.6,403.2,178.4z M414.5,173.7v9.3h2.6v-4.2c0-0.4,0-0.8,0.1-1.2
	c0.1-0.4,0.2-0.7,0.4-0.9c0.2-0.3,0.5-0.5,0.8-0.6c0.3-0.2,0.7-0.2,1.2-0.2c0.2,0,0.3,0,0.5,0c0.2,0,0.3,0,0.4,0.1v-2.4
	c-0.2-0.1-0.4-0.1-0.6-0.1c-0.3,0-0.6,0-0.9,0.1c-0.3,0.1-0.6,0.2-0.8,0.4c-0.3,0.2-0.5,0.4-0.7,0.6c-0.2,0.2-0.4,0.5-0.5,0.8h0
	v-1.7H414.5z M421.7,170.1V183h2.6v-3.2l1-1l2.6,4.2h3.1l-3.9-5.9l3.5-3.4h-3l-3.2,3.3v-6.9H421.7z M433.8,180h-2.4
	c0,0.6,0.2,1.1,0.4,1.6c0.3,0.4,0.6,0.7,1,1c0.4,0.3,0.9,0.4,1.4,0.5c0.5,0.1,1,0.2,1.6,0.2c0.5,0,1-0.1,1.5-0.2
	c0.5-0.1,1-0.3,1.4-0.5c0.4-0.3,0.7-0.6,1-1c0.3-0.4,0.4-0.9,0.4-1.5c0-0.4-0.1-0.8-0.3-1.1c-0.2-0.3-0.4-0.5-0.7-0.7
	c-0.3-0.2-0.6-0.4-1-0.5c-0.3-0.1-0.7-0.2-1.1-0.3c-0.4-0.1-0.7-0.2-1.1-0.2s-0.7-0.1-0.9-0.2c-0.3-0.1-0.5-0.2-0.6-0.4
	c-0.2-0.1-0.3-0.3-0.3-0.6c0-0.2,0-0.3,0.1-0.5c0.1-0.1,0.2-0.2,0.3-0.3c0.1-0.1,0.3-0.1,0.5-0.1c0.2,0,0.3,0,0.5,0
	c0.5,0,0.9,0.1,1.2,0.3c0.3,0.2,0.5,0.5,0.6,1h2.4c0-0.6-0.2-1.1-0.5-1.4c-0.2-0.4-0.5-0.7-0.9-0.9c-0.4-0.2-0.8-0.4-1.3-0.5
	c-0.5-0.1-1-0.1-1.5-0.1s-1,0-1.5,0.1c-0.5,0.1-0.9,0.2-1.3,0.5c-0.4,0.2-0.7,0.5-0.9,0.9c-0.2,0.4-0.3,0.9-0.3,1.5
	c0,0.4,0.1,0.8,0.3,1c0.2,0.3,0.4,0.5,0.7,0.7c0.3,0.2,0.6,0.3,0.9,0.5c0.4,0.1,0.7,0.2,1.1,0.3c0.9,0.2,1.6,0.4,2.1,0.6
	c0.5,0.2,0.8,0.5,0.8,0.9c0,0.2-0.1,0.4-0.2,0.6c-0.1,0.1-0.2,0.3-0.4,0.4c-0.2,0.1-0.3,0.2-0.5,0.2c-0.2,0-0.4,0.1-0.6,0.1
	c-0.3,0-0.5,0-0.7-0.1c-0.2-0.1-0.4-0.1-0.6-0.3c-0.2-0.1-0.3-0.3-0.4-0.5C433.8,180.5,433.8,180.3,433.8,180z M446.2,181.3
	c-0.4,0-0.8-0.1-1-0.3s-0.5-0.4-0.7-0.6c-0.2-0.3-0.3-0.6-0.4-1c-0.1-0.4-0.1-0.7-0.1-1.1c0-0.4,0-0.8,0.1-1.1
	c0.1-0.4,0.2-0.7,0.4-1c0.2-0.3,0.4-0.5,0.7-0.7c0.3-0.2,0.6-0.3,1.1-0.3c0.4,0,0.8,0.1,1,0.3c0.3,0.2,0.5,0.4,0.7,0.7
	c0.2,0.3,0.3,0.6,0.4,1c0.1,0.4,0.1,0.7,0.1,1.1c0,0.4,0,0.7-0.1,1.1s-0.2,0.7-0.4,1c-0.2,0.3-0.4,0.5-0.7,0.6
	C446.9,181.2,446.6,181.3,446.2,181.3z M441.5,173.7v12.6h2.6v-4.4h0c0.3,0.5,0.7,0.8,1.2,1c0.5,0.2,1,0.3,1.6,0.3
	c0.7,0,1.3-0.1,1.8-0.4c0.5-0.3,0.9-0.6,1.3-1.1c0.3-0.4,0.6-1,0.8-1.5s0.3-1.2,0.3-1.8c0-0.7-0.1-1.3-0.3-1.9
	c-0.2-0.6-0.4-1.1-0.8-1.6c-0.3-0.5-0.8-0.8-1.3-1.1c-0.5-0.3-1.2-0.4-1.9-0.4c-0.6,0-1.1,0.1-1.6,0.3c-0.5,0.2-0.9,0.6-1.2,1.1h0
	v-1.2H441.5z M452.4,176.6c0-0.6,0.2-1.1,0.4-1.5s0.6-0.7,1-1c0.4-0.2,0.9-0.4,1.4-0.5c0.5-0.1,1-0.2,1.5-0.2c0.5,0,0.9,0,1.4,0.1
	c0.5,0.1,0.9,0.2,1.3,0.4s0.7,0.5,1,0.8c0.3,0.3,0.4,0.8,0.4,1.3v4.8c0,0.4,0,0.8,0.1,1.2s0.1,0.7,0.3,0.9h-2.6
	c0-0.1-0.1-0.3-0.1-0.4c0-0.2,0-0.3-0.1-0.5c-0.4,0.4-0.9,0.7-1.4,0.9s-1.1,0.3-1.7,0.3c-0.4,0-0.9-0.1-1.2-0.2
	c-0.4-0.1-0.7-0.3-1-0.5c-0.3-0.2-0.5-0.5-0.7-0.9c-0.2-0.3-0.2-0.8-0.2-1.2c0-0.5,0.1-1,0.3-1.3c0.2-0.3,0.4-0.6,0.7-0.8
	c0.3-0.2,0.6-0.4,1-0.4c0.4-0.1,0.8-0.2,1.2-0.3s0.8-0.1,1.1-0.1c0.4,0,0.7-0.1,1-0.2c0.3-0.1,0.5-0.2,0.7-0.3
	c0.2-0.1,0.2-0.3,0.2-0.6c0-0.3,0-0.5-0.1-0.6c-0.1-0.2-0.2-0.3-0.4-0.4c-0.1-0.1-0.3-0.2-0.5-0.2c-0.2,0-0.4-0.1-0.6-0.1
	c-0.5,0-0.9,0.1-1.2,0.3s-0.5,0.6-0.5,1.1H452.4z M458.3,178.4c-0.1,0.1-0.2,0.2-0.4,0.2c-0.2,0-0.3,0.1-0.5,0.1
	c-0.2,0-0.4,0.1-0.6,0.1c-0.2,0-0.4,0.1-0.6,0.1c-0.2,0-0.4,0.1-0.6,0.1c-0.2,0.1-0.3,0.1-0.5,0.3c-0.1,0.1-0.2,0.2-0.3,0.4
	c-0.1,0.2-0.1,0.4-0.1,0.6c0,0.2,0,0.4,0.1,0.6c0.1,0.2,0.2,0.3,0.3,0.4c0.1,0.1,0.3,0.1,0.5,0.2c0.2,0,0.4,0.1,0.6,0.1
	c0.5,0,0.9-0.1,1.2-0.3s0.5-0.4,0.6-0.6c0.1-0.2,0.2-0.5,0.2-0.7c0-0.2,0.1-0.4,0.1-0.6V178.4z M469.1,177h2.5
	c0-0.6-0.2-1.1-0.4-1.5c-0.3-0.4-0.6-0.8-1-1.1c-0.4-0.3-0.9-0.5-1.4-0.7c-0.5-0.1-1-0.2-1.6-0.2c-0.8,0-1.4,0.1-2,0.4
	c-0.6,0.3-1.1,0.6-1.5,1.1c-0.4,0.4-0.7,1-0.9,1.6c-0.2,0.6-0.3,1.3-0.3,2c0,0.7,0.1,1.3,0.3,1.9c0.2,0.6,0.5,1.1,1,1.5
	c0.4,0.4,0.9,0.8,1.5,1c0.6,0.2,1.2,0.3,1.9,0.3c1.2,0,2.2-0.3,3-1c0.8-0.6,1.3-1.6,1.4-2.8h-2.5c-0.1,0.6-0.3,1-0.6,1.4
	c-0.3,0.3-0.8,0.5-1.4,0.5c-0.4,0-0.7-0.1-1-0.3c-0.3-0.2-0.5-0.4-0.7-0.7c-0.2-0.3-0.3-0.6-0.3-1c-0.1-0.3-0.1-0.7-0.1-1
	c0-0.3,0-0.7,0.1-1c0.1-0.4,0.2-0.7,0.4-1c0.2-0.3,0.4-0.5,0.7-0.7c0.3-0.2,0.6-0.3,1-0.3C468.4,175.4,469,175.9,469.1,177z
	 M479.4,177.3h-4.2c0-0.2,0-0.4,0.1-0.6c0.1-0.2,0.2-0.4,0.3-0.6c0.2-0.2,0.4-0.4,0.6-0.5c0.3-0.1,0.6-0.2,1-0.2
	c0.6,0,1.1,0.2,1.4,0.5C479.1,176.2,479.3,176.7,479.4,177.3z M475.3,179h6.7c0-0.7,0-1.4-0.2-2.1c-0.2-0.7-0.4-1.2-0.8-1.8
	c-0.4-0.5-0.9-0.9-1.4-1.2c-0.6-0.3-1.3-0.5-2.1-0.5c-0.7,0-1.4,0.1-1.9,0.4c-0.6,0.3-1.1,0.6-1.5,1c-0.4,0.4-0.7,0.9-1,1.5
	c-0.2,0.6-0.3,1.2-0.3,1.9c0,0.7,0.1,1.4,0.3,2c0.2,0.6,0.5,1.1,1,1.5c0.4,0.4,0.9,0.8,1.5,1c0.6,0.2,1.2,0.3,2,0.3
	c1.1,0,2-0.2,2.7-0.7c0.7-0.5,1.3-1.3,1.7-2.4h-2.2c-0.1,0.3-0.3,0.6-0.7,0.8c-0.4,0.3-0.8,0.4-1.3,0.4c-0.7,0-1.3-0.2-1.7-0.6
	C475.5,180.4,475.3,179.8,475.3,179z"/>
<path class="st6" d="M307,134v20"/>
<g>
	<defs>
		<path id="SVGID_17_" d="M340,210L340,210c6.6,0,12,5.4,12,12l0,0c0,6.6-5.4,12-12,12l0,0c-6.6,0-12-5.4-12-12l0,0
			C328,215.4,333.4,210,340,210z"/>
	</defs>
	<clipPath id="SVGID_18_">
		<use xlink:href="#SVGID_17_"  style="overflow:visible;"/>
	</clipPath>
	<g class="st20">
		<path class="st1" d="M340,210L340,210c6.6,0,12,5.4,12,12l0,0c0,6.6-5.4,12-12,12l0,0c-6.6,0-12-5.4-12-12l0,0
			C328,215.4,333.4,210,340,210z"/>
		<g>
			<defs>
				<path id="SVGID_19_" d="M340,210L340,210c6.6,0,12,5.4,12,12l0,0c0,6.6-5.4,12-12,12l0,0c-6.6,0-12-5.4-12-12l0,0
					C328,215.4,333.4,210,340,210z"/>
			</defs>
			<clipPath id="SVGID_20_">
				<use xlink:href="#SVGID_19_"  style="overflow:visible;"/>
			</clipPath>
			<g class="st21">
				<path class="st1" d="M340,210L340,210c6.6,0,12,5.4,12,12l0,0c0,6.6-5.4,12-12,12l0,0c-6.6,0-12-5.4-12-12l0,0
					C328,215.4,333.4,210,340,210z"/>
				<circle class="st1" cx="340" cy="218" r="4"/>
				<circle class="st1" cx="340" cy="231" r="8"/>
				<circle class="st3" cx="340" cy="222" r="11"/>
			</g>
		</g>
	</g>
</g>
<path class="st1" d="M364.8,223l1.7-4.7h0l1.6,4.7H364.8z M365.1,215.1l-4.9,12.9h2.8l1-2.9h4.8l1,2.9h2.9l-4.8-12.9H365.1z
	 M373.7,215.1V228h2.6v-12.9H373.7z M380.9,217.3v-2.1h-2.6v2.1H380.9z M378.4,218.7v9.3h2.6v-9.3H378.4z M389.3,222h2.5
	c0-0.6-0.2-1.1-0.4-1.5c-0.3-0.4-0.6-0.8-1-1.1c-0.4-0.3-0.9-0.5-1.4-0.7c-0.5-0.1-1-0.2-1.6-0.2c-0.8,0-1.4,0.1-2,0.4
	c-0.6,0.3-1.1,0.6-1.5,1.1c-0.4,0.4-0.7,1-0.9,1.6c-0.2,0.6-0.3,1.3-0.3,2c0,0.7,0.1,1.3,0.3,1.9c0.2,0.6,0.5,1.1,1,1.5
	c0.4,0.4,0.9,0.8,1.5,1c0.6,0.2,1.2,0.3,1.9,0.3c1.2,0,2.2-0.3,3-1c0.8-0.6,1.3-1.6,1.4-2.8h-2.5c-0.1,0.6-0.3,1-0.6,1.4
	c-0.3,0.3-0.8,0.5-1.4,0.5c-0.4,0-0.7-0.1-1-0.3s-0.5-0.4-0.7-0.7c-0.2-0.3-0.3-0.6-0.3-1c-0.1-0.3-0.1-0.7-0.1-1c0-0.3,0-0.7,0.1-1
	c0.1-0.4,0.2-0.7,0.4-1c0.2-0.3,0.4-0.5,0.7-0.7c0.3-0.2,0.6-0.3,1-0.3C388.5,220.4,389.1,220.9,389.3,222z M399.5,222.3h-4.2
	c0-0.2,0-0.4,0.1-0.6c0.1-0.2,0.2-0.4,0.3-0.6c0.2-0.2,0.4-0.4,0.6-0.5c0.3-0.1,0.6-0.2,1-0.2c0.6,0,1.1,0.2,1.4,0.5
	C399.2,221.2,399.4,221.7,399.5,222.3z M395.4,224h6.7c0-0.7,0-1.4-0.2-2.1c-0.2-0.7-0.4-1.2-0.8-1.8c-0.4-0.5-0.9-0.9-1.4-1.2
	c-0.6-0.3-1.3-0.5-2.1-0.5c-0.7,0-1.4,0.1-1.9,0.4c-0.6,0.3-1.1,0.6-1.5,1c-0.4,0.4-0.7,0.9-1,1.5c-0.2,0.6-0.3,1.2-0.3,1.9
	c0,0.7,0.1,1.4,0.3,2c0.2,0.6,0.5,1.1,1,1.5c0.4,0.4,0.9,0.8,1.5,1c0.6,0.2,1.2,0.3,2,0.3c1.1,0,2-0.2,2.7-0.7
	c0.7-0.5,1.3-1.3,1.7-2.4h-2.2c-0.1,0.3-0.3,0.6-0.7,0.8c-0.4,0.3-0.8,0.4-1.3,0.4c-0.7,0-1.3-0.2-1.7-0.6
	C395.6,225.4,395.4,224.8,395.4,224z"/>
<path class="st16" d="M307,190v32h20"/>
<g>
	<defs>
		<path id="SVGID_21_" d="M340,242L340,242c6.6,0,12,5.4,12,12l0,0c0,6.6-5.4,12-12,12l0,0c-6.6,0-12-5.4-12-12l0,0
			C328,247.4,333.4,242,340,242z"/>
	</defs>
	<clipPath id="SVGID_22_">
		<use xlink:href="#SVGID_21_"  style="overflow:visible;"/>
	</clipPath>
	<g class="st22">
		<path class="st8" d="M340,242L340,242c6.6,0,12,5.4,12,12l0,0c0,6.6-5.4,12-12,12l0,0c-6.6,0-12-5.4-12-12l0,0
			C328,247.4,333.4,242,340,242z"/>
		<g>
			<defs>
				<path id="SVGID_23_" d="M340,242L340,242c6.6,0,12,5.4,12,12l0,0c0,6.6-5.4,12-12,12l0,0c-6.6,0-12-5.4-12-12l0,0
					C328,247.4,333.4,242,340,242z"/>
			</defs>
			<clipPath id="SVGID_24_">
				<use xlink:href="#SVGID_23_"  style="overflow:visible;"/>
			</clipPath>
			<g class="st23">
				<path class="st1" d="M340,242L340,242c6.6,0,12,5.4,12,12l0,0c0,6.6-5.4,12-12,12l0,0c-6.6,0-12-5.4-12-12l0,0
					C328,247.4,333.4,242,340,242z"/>
				<circle class="st10" cx="340" cy="254" r="11"/>
			</g>
		</g>
		<circle class="st8" cx="340" cy="256" r="2"/>
		<path class="st24" d="M340,259h-2l-4,1"/>
		<path class="st24" d="M340,259h2l2,0.5l2-1.5"/>
		<path class="st24" d="M339,259v5"/>
		<path class="st24" d="M341,259v5"/>
		<path class="st25" d="M334,251l12-3"/>
		<path class="st25" d="M337,247l6,5"/>
		<path class="st26" d="M334,251v9"/>
		<path class="st26" d="M346,248v10"/>
		<path class="st26" d="M343,252v7"/>
		<path class="st26" d="M337,247v12"/>
	</g>
</g>
<path class="st12" d="M364.2,252.4v-3h2.6c0.3,0,0.5,0,0.7,0.1c0.2,0,0.5,0.1,0.6,0.2c0.2,0.1,0.3,0.3,0.4,0.4s0.2,0.4,0.2,0.7
	c0,0.5-0.2,0.9-0.5,1.2c-0.3,0.2-0.7,0.4-1.2,0.4H364.2z M361.4,247.1V260h6.2c0.6,0,1.1-0.1,1.7-0.2c0.6-0.1,1-0.4,1.5-0.7
	c0.4-0.3,0.8-0.7,1-1.2c0.3-0.5,0.4-1,0.4-1.7c0-0.8-0.2-1.5-0.6-2.1c-0.4-0.6-1-1-1.8-1.2c0.6-0.3,1-0.6,1.3-1.1
	c0.3-0.4,0.5-1,0.5-1.6c0-0.6-0.1-1.1-0.3-1.5c-0.2-0.4-0.5-0.7-0.8-1c-0.4-0.3-0.8-0.4-1.3-0.5c-0.5-0.1-1.1-0.2-1.7-0.2H361.4z
	 M364.2,257.8v-3.5h3.1c0.6,0,1.1,0.1,1.5,0.4c0.4,0.3,0.6,0.7,0.6,1.4c0,0.3-0.1,0.6-0.2,0.8c-0.1,0.2-0.3,0.4-0.4,0.5
	c-0.2,0.1-0.4,0.2-0.7,0.3c-0.3,0-0.5,0.1-0.8,0.1H364.2z M376.1,255.4c0-0.4,0-0.7,0.1-1.1s0.2-0.7,0.4-1c0.2-0.3,0.4-0.5,0.7-0.7
	c0.3-0.2,0.6-0.3,1.1-0.3s0.8,0.1,1.1,0.3c0.3,0.2,0.5,0.4,0.7,0.7c0.2,0.3,0.3,0.6,0.4,1s0.1,0.7,0.1,1.1c0,0.4,0,0.7-0.1,1.1
	c-0.1,0.3-0.2,0.7-0.4,1c-0.2,0.3-0.4,0.5-0.7,0.7c-0.3,0.2-0.6,0.3-1.1,0.3s-0.8-0.1-1.1-0.3c-0.3-0.2-0.5-0.4-0.7-0.7
	c-0.2-0.3-0.3-0.6-0.4-1C376.1,256.1,376.1,255.7,376.1,255.4z M373.5,255.4c0,0.7,0.1,1.4,0.3,2c0.2,0.6,0.6,1.1,1,1.5
	c0.4,0.4,0.9,0.7,1.5,1c0.6,0.2,1.2,0.3,2,0.3s1.4-0.1,2-0.3c0.6-0.2,1.1-0.6,1.5-1c0.4-0.4,0.7-0.9,1-1.5c0.2-0.6,0.3-1.3,0.3-2
	s-0.1-1.4-0.3-2c-0.2-0.6-0.6-1.1-1-1.5c-0.4-0.4-0.9-0.8-1.5-1c-0.6-0.2-1.2-0.4-2-0.4s-1.4,0.1-2,0.4c-0.6,0.2-1.1,0.6-1.5,1
	c-0.4,0.4-0.7,0.9-1,1.5C373.6,253.9,373.5,254.6,373.5,255.4z M391.6,255.4c0,0.4,0,0.8-0.1,1.1c-0.1,0.4-0.2,0.7-0.4,1
	c-0.2,0.3-0.4,0.5-0.7,0.7c-0.3,0.2-0.6,0.2-1,0.2c-0.4,0-0.7-0.1-1-0.2c-0.3-0.2-0.5-0.4-0.7-0.7s-0.3-0.6-0.4-1
	c-0.1-0.4-0.1-0.7-0.1-1.1c0-0.4,0-0.8,0.1-1.1c0.1-0.4,0.2-0.7,0.4-1s0.4-0.5,0.7-0.6c0.3-0.2,0.6-0.3,1-0.3c0.4,0,0.7,0.1,1,0.3
	c0.3,0.2,0.5,0.4,0.7,0.6c0.2,0.3,0.3,0.6,0.4,1C391.6,254.6,391.6,255,391.6,255.4z M384.8,247.1V260h2.4v-1.2h0
	c0.3,0.5,0.7,0.9,1.2,1.1c0.5,0.2,1.2,0.3,1.8,0.3c0.5,0,0.9-0.1,1.4-0.3c0.5-0.2,0.9-0.5,1.2-0.9c0.4-0.4,0.7-0.9,0.9-1.5
	c0.2-0.6,0.3-1.4,0.3-2.2s-0.1-1.6-0.3-2.2c-0.2-0.6-0.5-1.1-0.9-1.5c-0.4-0.4-0.8-0.7-1.2-0.9s-0.9-0.3-1.4-0.3
	c-0.6,0-1.1,0.1-1.7,0.3c-0.5,0.2-0.9,0.6-1.3,1h0v-4.7H384.8z"/>
<path class="st13" d="M307,222v32h20"/>
<g>
	<defs>
		<path id="SVGID_25_" d="M340,274L340,274c6.6,0,12,5.4,12,12l0,0c0,6.6-5.4,12-12,12l0,0c-6.6,0-12-5.4-12-12l0,0
			C328,279.4,333.4,274,340,274z"/>
	</defs>
	<clipPath id="SVGID_26_">
		<use xlink:href="#SVGID_25_"  style="overflow:visible;"/>
	</clipPath>
	<g class="st27">
		<path class="st1" d="M340,274L340,274c6.6,0,12,5.4,12,12l0,0c0,6.6-5.4,12-12,12l0,0c-6.6,0-12-5.4-12-12l0,0
			C328,279.4,333.4,274,340,274z"/>
		<g>
			<defs>
				<path id="SVGID_27_" d="M340,274L340,274c6.6,0,12,5.4,12,12l0,0c0,6.6-5.4,12-12,12l0,0c-6.6,0-12-5.4-12-12l0,0
					C328,279.4,333.4,274,340,274z"/>
			</defs>
			<clipPath id="SVGID_28_">
				<use xlink:href="#SVGID_27_"  style="overflow:visible;"/>
			</clipPath>
			<g class="st28">
				<path class="st1" d="M340,274L340,274c6.6,0,12,5.4,12,12l0,0c0,6.6-5.4,12-12,12l0,0c-6.6,0-12-5.4-12-12l0,0
					C328,279.4,333.4,274,340,274z"/>
				<circle class="st1" cx="340" cy="282" r="4"/>
				<circle class="st1" cx="340" cy="295" r="8"/>
				<circle class="st3" cx="340" cy="286" r="11"/>
			</g>
		</g>
	</g>
</g>
<path class="st1" d="M370.3,283.5h2.7c-0.1-0.7-0.3-1.4-0.6-2c-0.3-0.6-0.7-1.1-1.2-1.4c-0.5-0.4-1.1-0.7-1.7-0.9
	c-0.6-0.2-1.3-0.3-2-0.3c-1,0-1.9,0.2-2.7,0.5c-0.8,0.3-1.4,0.8-2,1.4s-1,1.3-1.2,2.2c-0.3,0.8-0.4,1.7-0.4,2.7
	c0,0.9,0.1,1.8,0.4,2.6c0.3,0.8,0.7,1.5,1.2,2.1s1.2,1.1,2,1.4c0.8,0.3,1.7,0.5,2.7,0.5c0.8,0,1.5-0.1,2.2-0.4
	c0.7-0.2,1.2-0.6,1.7-1c0.5-0.5,0.9-1,1.2-1.7s0.5-1.4,0.6-2.2h-2.7c-0.1,0.9-0.4,1.6-0.9,2.1c-0.5,0.5-1.2,0.8-2,0.8
	c-0.6,0-1.2-0.1-1.6-0.4c-0.4-0.3-0.8-0.6-1.1-1c-0.3-0.4-0.5-0.9-0.6-1.4c-0.1-0.5-0.2-1-0.2-1.6c0-0.6,0.1-1.1,0.2-1.6
	c0.1-0.5,0.3-1,0.6-1.4c0.3-0.4,0.6-0.8,1.1-1c0.4-0.3,1-0.4,1.6-0.4c0.3,0,0.7,0.1,1,0.2c0.3,0.1,0.6,0.3,0.9,0.5
	c0.3,0.2,0.5,0.4,0.6,0.7C370.2,282.9,370.3,283.1,370.3,283.5z M374.7,285.6c0-0.6,0.2-1.1,0.5-1.5c0.3-0.4,0.6-0.7,1-1
	c0.4-0.2,0.9-0.4,1.4-0.5c0.5-0.1,1-0.2,1.5-0.2c0.5,0,0.9,0,1.4,0.1c0.5,0.1,0.9,0.2,1.3,0.4c0.4,0.2,0.7,0.5,1,0.8
	c0.3,0.3,0.4,0.8,0.4,1.4v4.8c0,0.4,0,0.8,0.1,1.2c0,0.4,0.1,0.7,0.3,0.9h-2.6c0-0.1-0.1-0.3-0.1-0.4c0-0.2,0-0.3-0.1-0.5
	c-0.4,0.4-0.9,0.7-1.4,0.9s-1.1,0.3-1.7,0.3c-0.4,0-0.9-0.1-1.2-0.2c-0.4-0.1-0.7-0.3-1-0.5s-0.5-0.5-0.7-0.9
	c-0.2-0.3-0.2-0.8-0.2-1.2c0-0.5,0.1-1,0.3-1.3c0.2-0.3,0.4-0.6,0.7-0.8c0.3-0.2,0.6-0.4,1-0.5c0.4-0.1,0.8-0.2,1.2-0.3
	c0.4-0.1,0.8-0.1,1.1-0.1c0.4,0,0.7-0.1,1-0.2c0.3-0.1,0.5-0.2,0.7-0.3c0.2-0.1,0.2-0.3,0.2-0.6c0-0.3,0-0.5-0.1-0.6
	c-0.1-0.2-0.2-0.3-0.4-0.4c-0.1-0.1-0.3-0.2-0.5-0.2c-0.2,0-0.4-0.1-0.6-0.1c-0.5,0-0.9,0.1-1.2,0.3c-0.3,0.2-0.5,0.6-0.5,1.1H374.7
	z M380.6,287.4c-0.1,0.1-0.2,0.2-0.4,0.2c-0.2,0-0.3,0.1-0.5,0.1c-0.2,0-0.4,0.1-0.6,0.1c-0.2,0-0.4,0.1-0.6,0.1
	c-0.2,0-0.4,0.1-0.6,0.1c-0.2,0.1-0.3,0.1-0.5,0.3c-0.1,0.1-0.2,0.2-0.3,0.4c-0.1,0.2-0.1,0.4-0.1,0.6c0,0.2,0,0.4,0.1,0.6
	c0.1,0.2,0.2,0.3,0.3,0.4c0.1,0.1,0.3,0.1,0.5,0.2c0.2,0,0.4,0.1,0.6,0.1c0.5,0,0.9-0.1,1.2-0.3c0.3-0.2,0.5-0.4,0.6-0.6
	c0.1-0.2,0.2-0.5,0.2-0.7c0-0.2,0.1-0.4,0.1-0.6V287.4z M385.1,282.7v9.3h2.6v-4.2c0-0.4,0-0.8,0.1-1.2c0.1-0.4,0.2-0.7,0.4-0.9
	c0.2-0.3,0.5-0.5,0.8-0.6c0.3-0.2,0.7-0.2,1.2-0.2c0.2,0,0.3,0,0.5,0c0.2,0,0.3,0,0.4,0.1v-2.4c-0.2-0.1-0.4-0.1-0.6-0.1
	c-0.3,0-0.6,0-0.9,0.1c-0.3,0.1-0.6,0.2-0.8,0.4c-0.3,0.2-0.5,0.4-0.7,0.6c-0.2,0.2-0.4,0.5-0.5,0.8h0v-1.7H385.1z M394.1,287.4
	c0-0.4,0-0.7,0.1-1.1c0.1-0.4,0.2-0.7,0.4-1c0.2-0.3,0.4-0.5,0.7-0.7c0.3-0.2,0.6-0.3,1.1-0.3s0.8,0.1,1.1,0.3
	c0.3,0.2,0.5,0.4,0.7,0.7c0.2,0.3,0.3,0.6,0.4,1c0.1,0.4,0.1,0.7,0.1,1.1c0,0.4,0,0.7-0.1,1.1c-0.1,0.3-0.2,0.7-0.4,1
	c-0.2,0.3-0.4,0.5-0.7,0.7c-0.3,0.2-0.6,0.3-1.1,0.3s-0.8-0.1-1.1-0.3s-0.5-0.4-0.7-0.7c-0.2-0.3-0.3-0.6-0.4-1
	C394.1,288.1,394.1,287.7,394.1,287.4z M391.5,287.4c0,0.7,0.1,1.4,0.3,2c0.2,0.6,0.6,1.1,1,1.5c0.4,0.4,0.9,0.7,1.5,1
	c0.6,0.2,1.2,0.3,2,0.3s1.4-0.1,2-0.3c0.6-0.2,1.1-0.6,1.5-1c0.4-0.4,0.7-0.9,1-1.5c0.2-0.6,0.3-1.3,0.3-2c0-0.7-0.1-1.4-0.3-2
	c-0.2-0.6-0.6-1.1-1-1.5c-0.4-0.4-0.9-0.8-1.5-1c-0.6-0.2-1.2-0.4-2-0.4s-1.4,0.1-2,0.4c-0.6,0.2-1.1,0.6-1.5,1
	c-0.4,0.4-0.7,0.9-1,1.5C391.7,285.9,391.5,286.6,391.5,287.4z M402.9,279.1V292h2.6v-12.9H402.9z"/>
<path class="st16" d="M307,254v32h20"/>
<path class="st1" d="M222.5,39h40c2.2,0,4,1.8,4,4v40c0,2.2-1.8,4-4,4h-40c-2.2,0-4-1.8-4-4V43C218.5,40.8,220.3,39,222.5,39z"/>
<path class="st29" d="M232.5,55h20v11"/>
<path class="st29" d="M256.5,63l-4,4l-4-4"/>
<path class="st29" d="M252.5,71h-20V60"/>
<path class="st29" d="M228.5,63l4-4l4,4"/>
<path class="st1" d="M218.2,105.3v-3h2.6c0.3,0,0.5,0,0.7,0.1c0.2,0,0.5,0.1,0.6,0.2c0.2,0.1,0.3,0.3,0.4,0.4
	c0.1,0.2,0.2,0.4,0.2,0.7c0,0.5-0.2,0.9-0.5,1.2c-0.3,0.2-0.7,0.4-1.2,0.4H218.2z M215.4,100.1V113h6.2c0.6,0,1.1-0.1,1.7-0.2
	c0.6-0.1,1-0.4,1.5-0.7c0.4-0.3,0.8-0.7,1-1.2c0.3-0.5,0.4-1,0.4-1.7c0-0.8-0.2-1.5-0.6-2.1c-0.4-0.6-1-1-1.8-1.2
	c0.6-0.3,1-0.6,1.3-1.1c0.3-0.4,0.4-1,0.4-1.6c0-0.6-0.1-1.1-0.3-1.5c-0.2-0.4-0.5-0.7-0.8-1c-0.4-0.3-0.8-0.4-1.3-0.5
	c-0.5-0.1-1.1-0.2-1.7-0.2H215.4z M218.2,110.8v-3.5h3.1c0.6,0,1.1,0.1,1.5,0.4c0.4,0.3,0.6,0.7,0.6,1.4c0,0.3-0.1,0.6-0.2,0.8
	c-0.1,0.2-0.3,0.4-0.4,0.5c-0.2,0.1-0.4,0.2-0.7,0.3c-0.3,0-0.5,0.1-0.8,0.1H218.2z M227.8,103.7v9.3h2.6v-4.2c0-0.4,0-0.8,0.1-1.2
	s0.2-0.7,0.4-0.9c0.2-0.3,0.5-0.5,0.8-0.6s0.7-0.2,1.2-0.2c0.2,0,0.3,0,0.5,0c0.2,0,0.3,0,0.4,0.1v-2.4c-0.2-0.1-0.4-0.1-0.6-0.1
	c-0.3,0-0.6,0-0.9,0.1s-0.6,0.2-0.8,0.4c-0.3,0.2-0.5,0.4-0.7,0.6c-0.2,0.2-0.4,0.5-0.5,0.8h0v-1.7H227.8z M237.4,102.3v-2.1h-2.6
	v2.1H237.4z M234.9,103.7v9.3h2.6v-9.3H234.9z M246.1,108.3c0,0.4,0,0.8-0.1,1.1c-0.1,0.4-0.2,0.7-0.4,1c-0.2,0.3-0.4,0.5-0.7,0.7
	c-0.3,0.2-0.6,0.3-1,0.3c-0.4,0-0.7-0.1-1-0.3c-0.3-0.2-0.5-0.4-0.7-0.7c-0.2-0.3-0.3-0.6-0.4-1s-0.1-0.7-0.1-1.1
	c0-0.4,0-0.8,0.1-1.1c0.1-0.4,0.2-0.7,0.4-1c0.2-0.3,0.4-0.5,0.7-0.7c0.3-0.2,0.6-0.3,1.1-0.3s0.8,0.1,1,0.3s0.5,0.4,0.7,0.7
	c0.2,0.3,0.3,0.6,0.4,0.9C246,107.6,246.1,107.9,246.1,108.3z M246.1,111.8v1.2h2.4v-12.9H246v4.7h0c-0.3-0.5-0.7-0.8-1.2-1
	c-0.5-0.2-1-0.4-1.6-0.4c-0.7,0-1.3,0.1-1.8,0.4c-0.5,0.3-0.9,0.6-1.3,1.1c-0.3,0.4-0.6,1-0.8,1.5c-0.2,0.6-0.3,1.2-0.3,1.8
	c0,0.6,0.1,1.3,0.3,1.9c0.2,0.6,0.4,1.1,0.8,1.6c0.3,0.5,0.8,0.8,1.3,1.1c0.5,0.3,1.1,0.4,1.8,0.4c0.6,0,1.2-0.1,1.6-0.3
	C245.4,112.7,245.8,112.3,246.1,111.8L246.1,111.8z M254.8,110.8c-0.4,0-0.7-0.1-1-0.3c-0.3-0.2-0.5-0.4-0.6-0.6
	c-0.2-0.3-0.3-0.6-0.3-0.9c-0.1-0.3-0.1-0.7-0.1-1c0-0.3,0-0.7,0.1-1c0.1-0.3,0.2-0.6,0.4-0.8c0.2-0.3,0.4-0.5,0.6-0.6
	c0.3-0.1,0.6-0.2,0.9-0.2c0.4,0,0.8,0.1,1,0.2c0.3,0.2,0.5,0.4,0.7,0.6s0.3,0.6,0.4,0.9c0.1,0.3,0.1,0.7,0.1,1.1c0,0.3,0,0.7-0.1,1
	c-0.1,0.3-0.2,0.6-0.4,0.8s-0.4,0.4-0.7,0.6C255.5,110.7,255.2,110.8,254.8,110.8z M259.4,112.4v-8.7H257v1.2h0
	c-0.3-0.5-0.7-0.9-1.2-1.2c-0.5-0.2-1-0.3-1.6-0.3c-0.6,0-1.2,0.1-1.7,0.4c-0.5,0.3-0.9,0.6-1.2,1c-0.3,0.4-0.6,0.9-0.8,1.5
	c-0.2,0.6-0.3,1.1-0.3,1.7c0,0.6,0.1,1.2,0.2,1.8c0.2,0.6,0.4,1.1,0.7,1.5c0.3,0.4,0.7,0.8,1.2,1c0.5,0.2,1.1,0.4,1.8,0.4
	c0.6,0,1.1-0.1,1.6-0.3c0.5-0.2,0.9-0.6,1.2-1.1h0v1.2c0,0.7-0.1,1.2-0.5,1.6c-0.3,0.4-0.8,0.6-1.6,0.6c-0.5,0-0.9-0.1-1.2-0.3
	c-0.3-0.2-0.6-0.5-0.7-1h-2.5c0,0.5,0.2,1,0.4,1.3c0.3,0.4,0.6,0.7,1,0.9c0.4,0.2,0.8,0.4,1.3,0.5c0.5,0.1,0.9,0.2,1.4,0.2
	c1.1,0,1.9-0.1,2.6-0.4c0.6-0.3,1.1-0.6,1.5-1.1c0.3-0.4,0.6-0.9,0.6-1.3C259.4,113.2,259.4,112.8,259.4,112.4z M267.7,107.3h-4.2
	c0-0.2,0-0.4,0.1-0.6c0.1-0.2,0.2-0.4,0.3-0.6c0.2-0.2,0.4-0.4,0.6-0.5c0.3-0.1,0.6-0.2,1-0.2c0.6,0,1.1,0.2,1.4,0.5
	C267.4,106.2,267.6,106.7,267.7,107.3z M263.6,109h6.7c0-0.7,0-1.4-0.2-2.1c-0.2-0.7-0.4-1.2-0.8-1.8c-0.4-0.5-0.9-0.9-1.4-1.2
	c-0.6-0.3-1.3-0.5-2.1-0.5c-0.7,0-1.4,0.1-1.9,0.4c-0.6,0.3-1.1,0.6-1.5,1c-0.4,0.4-0.7,0.9-1,1.5c-0.2,0.6-0.3,1.2-0.3,1.9
	c0,0.7,0.1,1.4,0.3,2c0.2,0.6,0.5,1.1,1,1.5c0.4,0.4,0.9,0.8,1.5,1c0.6,0.2,1.2,0.3,2,0.3c1.1,0,2-0.2,2.7-0.7
	c0.7-0.5,1.3-1.3,1.7-2.4h-2.2c-0.1,0.3-0.3,0.6-0.7,0.8c-0.4,0.3-0.8,0.4-1.3,0.4c-0.7,0-1.3-0.2-1.7-0.6
	C263.8,110.4,263.6,109.8,263.6,109z"/>
</svg>
